<svg width="150" height="75" viewBox="0 0 150 75" fill="none" xmlns="http://www.w3.org/2000/svg">
<path d="M13.0625 28.1275C11.67 28.4087 10.1875 29.525 9.55375 30.745C8.92 31.965 8.91 32.2637 8.91 37.395L9.025 42.745C9.43375 44.8325 11.0663 46.4662 13.155 46.875C13.7875 46.99 22.025 47.0475 22.025 46.9212C22.025 46.8287 21.325 44.0687 21.275 44.0462C21.2625 44.0237 19.8025 43.7012 18.0313 43.3212C13.9013 42.4237 14.0275 42.4462 13.6813 42.0437L13.3813 41.6875V33.335L13.6813 32.96C14.0263 32.5475 13.9 32.58 18.0313 31.6825L21.275 30.9575C21.31 30.9225 22.025 28.1625 22.025 28.0825C22.025 27.9737 13.615 28.025 13.0625 28.14V28.1275ZM26.3963 28.145C26.4088 28.3525 27.0525 30.895 27.1213 30.9525C27.1438 30.9875 28.7213 31.3437 30.6213 31.7462L34.3375 32.6437C34.5401 32.7615 34.7102 32.9277 34.8325 33.1275C35.0163 33.45 35.04 33.795 35.04 37.4987L34.8325 41.87C34.7071 42.0673 34.5377 42.2329 34.3375 42.3537C34.1875 42.4337 32.52 42.8375 30.6213 43.2512L27.1213 44.045C26.836 44.969 26.5941 45.9059 26.3963 46.8525C26.3963 46.9775 27.225 47.0025 30.8588 46.9675C35.875 46.9212 35.9338 46.91 37.2088 46.0475C38.1262 45.4163 38.8192 44.5097 39.1875 43.4587C39.4525 42.6875 39.4525 42.6187 39.4525 37.5L39.1875 31.5375C38.8192 30.4866 38.1262 29.58 37.2088 28.9487C35.9313 28.0737 35.8738 28.0737 30.8588 28.0287C27.2238 27.9937 26.3963 28.0112 26.3963 28.1437V28.145ZM47.805 32.0575C47.0113 33.7137 46.2175 35.7612 45.4013 38.245L43.7675 43.8475C44.0738 43.8775 44.3925 43.8887 44.6875 43.8825H45.5963L45.7213 43.3875L46.1713 41.8125L46.4813 40.72H52.7975L53.12 41.87L53.5575 43.445L53.6725 43.8825H54.5813L55.5013 43.8475C55.5013 43.825 55.2713 42.9725 54.9838 41.9375C53.9375 38.1525 52.6025 34.4375 51.475 32.09L50.875 30.8825H48.3675L47.805 32.0575ZM50.53 34.3575L52.1638 38.775C52.1638 38.7975 51.0388 38.8212 49.6325 38.8212C48.2263 38.8212 47.1013 38.775 47.1013 38.7287C47.1013 38.5337 48.2638 35.4387 48.8263 34.1037C49.2638 33.0787 49.4825 32.7112 49.6313 32.7112C49.78 32.7112 50.0113 33.1362 50.5288 34.345L50.53 34.3575ZM56.65 37.3825V43.8825H58.4913V30.8825H56.65V37.3825ZM60.7913 31.0325C60.5756 31.1771 60.4011 31.3752 60.285 31.6075C60.1013 31.9987 60.09 32.0912 60.2388 32.4825C60.4388 33.06 61.0588 33.375 61.6425 33.195C62.2175 33.0112 62.4588 32.6775 62.4588 32.0787C62.4588 31.6412 62.4013 31.5162 62.0788 31.2287C61.6763 30.8725 61.2625 30.8037 60.7913 31.045V31.0325ZM64.1288 37.36V43.86L65.5438 43.9637L68.2125 44.0675C69.375 44.0675 69.535 44.045 70.145 43.7337C70.8638 43.4087 71.4025 42.78 71.6175 42.0212C71.6863 41.7462 71.7213 40.5262 71.6975 38.8587C71.6625 36.2937 71.6513 36.1087 71.41 35.6487C70.96 34.82 70.2825 34.4175 69.0288 34.245C68.3613 34.1525 66.7038 34.245 66.1988 34.4075C65.98 34.4762 65.9688 34.43 65.9688 32.695V30.8875H64.1275L64.1288 37.36ZM69.3625 36.1175C69.5874 36.1992 69.7725 36.3637 69.88 36.5775C70.03 36.9687 70.03 41.2487 69.88 41.6275C69.7075 42.0987 69.13 42.3175 68.0388 42.3175C67.5309 42.3231 67.0234 42.2922 66.52 42.225L65.9675 42.145V36.1975L66.635 36.0825C67.66 35.91 68.9125 35.92 69.36 36.1175H69.3625ZM82.42 37.3712V43.8712L83.5475 43.9287L85.8938 44.0787C87.4688 44.1712 88.4588 43.9162 89.1038 43.2387C89.9325 42.3887 89.9538 42.2837 89.9787 39.385C90.0137 37.28 89.9912 36.635 89.8538 36.1637C89.5437 35.0825 88.6463 34.4037 87.2763 34.2425C86.5863 34.1625 84.78 34.255 84.4113 34.405C84.2963 34.44 84.2613 34.0487 84.2613 32.68V30.8962H82.42V37.3712ZM87.585 36.065C87.78 36.1337 87.9975 36.2837 88.0563 36.3987C88.1813 36.6287 88.2188 41.4362 88.1025 41.7487C87.9075 42.255 86.3525 42.4737 84.8125 42.22L84.26 42.14V36.2L84.9275 36.085C85.8475 35.935 87.1475 35.9225 87.585 36.0675V36.065ZM105.865 30.9975C104.715 31.205 104.115 31.4812 103.53 32.0787C102.61 32.9987 102.553 33.3325 102.553 37.4975C102.553 41.6625 102.61 41.995 103.552 42.9275C104.036 43.4225 104.302 43.5712 104.99 43.8025C105.74 44.0325 106.083 44.0675 107.625 44.0675C108.96 44.0675 109.65 44.01 110.34 43.8487C110.707 43.7757 111.069 43.6758 111.421 43.55C111.514 43.4925 111.501 43.285 111.364 42.7337C111.299 42.4546 111.21 42.1815 111.099 41.9175C111.053 41.8712 110.765 41.905 110.466 41.9975C109.441 42.3075 107.648 42.435 106.531 42.2975C105.415 42.16 105.001 41.975 104.656 41.5262C104.426 41.2262 104.415 41.1012 104.415 37.5112C104.415 33.9212 104.428 33.795 104.656 33.4962C105.013 33.0462 105.415 32.875 106.531 32.725C107.648 32.575 109.441 32.7125 110.466 33.025L111.088 33.1975C111.18 33.1975 111.583 31.5975 111.513 31.53C111.478 31.495 111.052 31.3675 110.546 31.23C109.546 30.965 106.83 30.8387 105.875 31.0112L105.865 30.9975ZM113.135 37.3825V43.8825H114.86V30.8825H113.135V37.3825ZM139.26 32.6075V34.3325L138.604 34.2637L137.684 34.1487C137.292 34.08 135.842 34.3112 135.429 34.5175C134.893 34.8021 134.453 35.2381 134.164 35.7712C133.934 36.1962 133.911 36.4387 133.876 38.7712C133.83 41.9112 133.923 42.3712 134.751 43.1887C135.499 43.9137 136.385 44.155 137.891 44.0637L140.031 43.9387L141.09 43.87V30.895H139.25L139.26 32.6075ZM139.065 36.1162C139.249 36.1962 139.26 36.45 139.26 39.1762V42.1437L138.835 42.2237C138.085 42.3737 136.695 42.3387 136.293 42.1662C136.085 42.0737 135.868 41.9137 135.809 41.7975C135.75 41.6812 135.694 40.4625 135.694 39.0825C135.694 36.3325 135.716 36.2525 136.326 36.0575C136.695 35.9425 138.719 35.9887 139.076 36.115L139.065 36.1162ZM75.99 34.225C75.4753 34.2939 74.9646 34.3899 74.46 34.5125C73.8388 34.6625 73.6888 34.7425 73.735 34.8925C73.77 34.9962 73.85 35.33 73.93 35.6512C74.01 35.9725 74.0925 36.2612 74.1375 36.295C74.1825 36.3287 74.6788 36.2725 75.2425 36.17C77.1638 35.7675 78.4638 35.9512 78.6475 36.6412C78.7055 36.9484 78.7365 37.26 78.74 37.5725L78.7525 38.2162L77.66 38.1587C74.7375 38.0087 72.9775 39.1025 72.955 41.0687C72.9425 42 73.2425 42.725 73.8638 43.3C74.5888 43.9675 75.3588 44.175 76.8438 44.0712L79.2475 43.9462L80.49 43.8662L80.4212 36.135L80.0988 35.5937C79.455 34.5062 77.9238 34 75.9913 34.2475L75.99 34.225ZM78.67 40.0462C78.785 40.115 78.7738 42.1512 78.6575 42.1512C78.6 42.1512 78.0138 42.2087 77.345 42.2762C75.4238 42.46 74.7225 42.1725 74.7225 41.1837C74.7225 40.7587 74.78 40.6312 75.0675 40.3787C75.3175 40.185 75.64 40.0625 75.965 40.0225L76.6775 39.9075C76.885 39.8612 78.5525 39.97 78.6675 40.0512L78.67 40.0462ZM94.3388 34.2087L92.8087 34.5087C92.0375 34.6925 91.9688 34.7387 92.0262 34.9587L92.2337 35.8087C92.3587 36.3837 92.3838 36.4187 92.6588 36.35C94.2 35.9475 95.6838 35.8325 96.2838 36.05C96.825 36.2575 96.94 36.4875 96.94 37.3625V38.1912H95.5125C93.7063 38.1912 92.8775 38.4212 92.0838 39.135C91.7544 39.4131 91.5005 39.7698 91.3456 40.172C91.1907 40.5743 91.1398 41.0091 91.1975 41.4362C91.3925 43.3112 92.7275 44.22 95.12 44.0712L97.5238 43.9462L98.7663 43.8662L98.7313 40.0587C98.6963 36.4 98.685 36.2275 98.4438 35.7787C97.7875 34.5475 96.3038 33.995 94.325 34.2262L94.3388 34.2087ZM96.6163 39.9587H96.9263V42.1337L96.27 42.2137C95.005 42.3762 93.7738 42.3387 93.4512 42.1212C92.8075 41.6962 92.83 40.58 93.4863 40.2462C93.9362 40.0162 95.005 39.855 95.7175 39.9237L96.615 39.97L96.6163 39.9587ZM118.911 34.2062C118.213 34.3582 117.585 34.7387 117.128 35.2875C116.54 36.0587 116.484 36.4375 116.484 39.2C116.484 42.03 116.564 42.3625 117.324 43.1575C118.074 43.9287 118.429 44.0325 120.165 44.0325C121.949 44.0325 122.353 43.9075 123.087 43.0325C123.787 42.2037 123.87 41.79 123.837 38.88C123.802 36.51 123.78 36.28 123.55 35.8425C123.21 35.2148 122.683 34.7082 122.042 34.3925C121.455 34.1275 119.73 34.0125 118.925 34.185L118.911 34.2062ZM121.443 36.1162C122.03 36.4162 122.121 36.8287 122.121 39.0962C122.121 41.2462 122.041 41.65 121.546 42.0875C121.19 42.41 119.568 42.49 118.981 42.2025C118.291 41.88 118.21 41.5462 118.21 39.0962C118.21 36.75 118.279 36.4387 118.878 36.1162C119.315 35.875 120.983 35.875 121.443 36.1162ZM60.4588 39.0962V43.8712H62.1838V34.3212H60.4588V39.0962ZM125.271 34.4712C125.236 34.5637 125.225 36.2887 125.249 38.3025C125.284 41.615 125.306 42.0062 125.501 42.375C126.18 43.6525 127.33 44.1812 129.205 44.055L132.475 43.8587V34.3337H130.725V42.1462L130.184 42.2262C129.184 42.3887 127.94 42.33 127.538 42.1225L127.135 41.8925C127.122 41.88 127.077 40.19 127.042 38.1425L126.985 34.3925L126.145 34.3575C125.512 34.335 125.295 34.3575 125.248 34.4825L125.271 34.4712ZM21.2625 37.255C21.225 37.3781 21.2173 37.5083 21.24 37.635C21.275 37.83 21.4813 37.8425 24.185 37.8762L27.085 37.8987V37.0937H24.21C21.8063 37.0937 21.31 37.1162 21.265 37.2562L21.2625 37.255Z" fill="#373C41"/>
</svg>
