<svg width="150" height="75" viewBox="0 0 150 75" fill="none" xmlns="http://www.w3.org/2000/svg">
<path d="M18.6695 38.2477L8.55118 18.1108L5.98422 19.3819V55.6183L8.55118 56.8893L18.6695 38.2477ZM37.0867 26.8335L33.1241 27.4565L16.3517 24.6404L20.1398 19.3071L37.0867 26.8335ZM37.0867 48.042L33.3235 47.4688L13.4359 50.7336L17.5978 56.4656L37.0867 48.042Z" fill="#9D5125"/>
<path d="M8.55118 18.1108L14.5324 19.4815V55.4937L8.55118 56.8893V18.1108Z" fill="#F58534"/>
<path d="M11.3923 58.3098V16.6903L14.5324 15.1202L20.4389 40.0172L14.5324 59.8799L11.3923 58.3098ZM33.0992 27.4565V47.419L37.0867 48.042L40.7253 37.8988L37.0867 26.8335L33.0992 27.4565Z" fill="#9D5125"/>
<path d="M14.5324 15.1202L20.6383 16.8647V58.1603L14.5324 59.8799V15.1202Z" fill="#F58534"/>
<path d="M14.5324 59.8799L41.2487 52.3286V47.2694L14.5324 52.2289V59.8799ZM14.5324 15.1202L41.2985 22.7214V27.631L14.5324 22.5469V15.1202Z" fill="#F58534"/>
<path d="M41.3733 52.3286L37.0867 53.4999V21.5251L41.3733 22.6964V52.3286Z" fill="#F58534"/>
<path d="M38.3827 33.8615L49.9963 24.4908L53.9339 33.5873L42.4449 34.1356L38.3827 33.8615Z" fill="#6B3B19"/>
<path d="M49.9963 24.4908L38.3827 26.3849V33.8615L49.9963 33.1886V24.4908Z" fill="#9D5125"/>
<path d="M45.2113 32.715L32.9995 33.4876L27.442 33.1138L39.23 21.251L45.2113 32.715Z" fill="#6B3B19"/>
<path d="M39.23 21.251L27.442 23.9924V33.1138L39.23 32.1169V21.251ZM49.9963 50.6588L38.3827 48.7896V41.3131L53.9339 41.5623L49.9963 50.6588Z" fill="#9D5125"/>
<path d="M39.23 53.8986L27.442 51.1572V42.0358L45.2113 42.4346L39.23 53.8986Z" fill="#9D5125"/>
<path d="M45.2113 42.4346L32.9995 41.662L27.442 42.0358L39.23 43.0327L45.2113 42.4346ZM38.3827 41.3131L49.9963 41.9611L53.9339 41.5623L42.4449 41.039L38.3827 41.3131Z" fill="#FCBF92"/>
<path d="M53.9339 25.6621L49.9963 24.4908V33.1886L53.9339 33.5873V25.6621ZM39.23 21.251L45.2113 23.0454V32.715L39.23 32.1169V21.251ZM53.9339 49.4875L49.9963 50.6588V41.9611L53.9339 41.5623V49.4875ZM39.23 53.8986L45.2113 52.1043V42.4346L39.23 43.0327V53.8986Z" fill="#F58534"/>
<path d="M65.5025 32.63L69.1275 42.38H66.915L66.2 40.175H62.5325L61.7737 42.3563H59.6237L63.2912 32.6063L65.5025 32.63ZM65.5975 38.605L64.3637 35.03H64.3325L63.0675 38.605H65.5975ZM71.6687 35.3175V36.2675H71.7C71.9525 35.8875 72.2687 35.635 72.6175 35.4138C72.965 35.2238 73.3762 35.0975 73.8512 35.0975C74.2752 35.0991 74.6945 35.185 75.085 35.35C75.465 35.5075 75.7475 35.825 75.9387 36.2675C76.16 35.9513 76.445 35.6988 76.7925 35.445C77.14 35.2238 77.5825 35.0975 78.0575 35.0975C78.4375 35.0975 78.785 35.1288 79.1012 35.2225C79.4031 35.3115 79.6831 35.4622 79.9238 35.665C80.1623 35.8826 80.3464 36.1532 80.4613 36.455C80.5863 36.7713 80.6513 37.1825 80.6513 37.625V42.3675H78.7225V38.35L78.6912 37.6875C78.66 37.4663 78.6288 37.3075 78.5338 37.15C78.4388 36.9925 78.3438 36.865 78.1863 36.77C78.0288 36.675 77.8062 36.645 77.5237 36.645C77.2412 36.645 77.0175 36.7075 76.8612 36.8025C76.6943 36.9061 76.5536 37.0468 76.45 37.2138C76.3493 37.3888 76.2847 37.5821 76.26 37.7825L76.1975 38.445V42.3663H74.2625V37.7813C74.2625 37.5913 74.2 37.4013 74.1375 37.2125C74.075 37.0238 73.9475 36.8963 73.79 36.8C73.6325 36.7038 73.41 36.6425 73.0937 36.6425C72.9987 36.6425 72.8725 36.6738 72.7463 36.705C72.5887 36.7363 72.4613 36.83 72.3038 36.9263C72.1788 37.0513 72.0513 37.2113 71.9563 37.4325C71.8466 37.7035 71.793 37.994 71.7987 38.2863V42.425H69.87V35.375H71.6725L71.6687 35.3175ZM82.4187 36.3625C82.6087 36.0463 82.8612 35.825 83.1775 35.635C83.4982 35.4434 83.8524 35.3144 84.2212 35.255C84.6073 35.1825 84.9986 35.1407 85.3913 35.13C85.7388 35.13 86.1188 35.1613 86.4663 35.1925C86.8463 35.255 87.1625 35.35 87.4662 35.4775C87.7825 35.635 88.0037 35.825 88.1937 36.0775C88.3837 36.33 88.4787 36.6775 88.4787 37.1213V40.7888C88.4787 41.105 88.51 41.4213 88.5412 41.7063C88.5725 41.9913 88.6362 42.2125 88.7312 42.3688H86.7712C86.7356 42.2541 86.7039 42.1382 86.6763 42.0213C86.645 41.8963 86.645 41.8 86.6137 41.6738C86.2975 41.99 85.9512 42.2113 85.5075 42.3363C85.0872 42.4634 84.6504 42.5274 84.2113 42.5263C83.8638 42.5263 83.5487 42.495 83.2612 42.4013C82.9902 42.3146 82.7342 42.1864 82.5025 42.0213C82.2812 41.8625 82.1225 41.6413 81.9962 41.3588C81.8712 41.1063 81.8062 40.79 81.8062 40.4088C81.8062 39.9963 81.8687 39.6813 82.0275 39.4288C82.1862 39.1763 82.3438 38.9538 82.565 38.7963C82.7919 38.6305 83.05 38.5123 83.3238 38.4488L84.1775 38.2588C84.4625 38.2275 84.7462 38.1638 85.0312 38.1638C85.2872 38.1423 85.5409 38.1001 85.79 38.0375C86.0113 37.975 86.17 37.9125 86.2962 37.785C86.4213 37.69 86.4863 37.5325 86.4863 37.3425C86.4863 37.1213 86.455 36.9625 86.3912 36.8363C86.3303 36.7124 86.2301 36.6122 86.1063 36.5513C85.9788 36.4888 85.8537 36.4263 85.6937 36.4263C85.5362 36.395 85.3775 36.395 85.2188 36.395C84.8388 36.395 84.5225 36.49 84.3338 36.6475C84.1125 36.805 83.9862 37.09 83.9538 37.47H82.0375C82.1 37.0275 82.195 36.6475 82.4175 36.3638L82.4187 36.3625ZM86.2438 39.0813L85.8312 39.1763C85.7062 39.2075 85.5462 39.2388 85.3887 39.2388C85.2312 39.27 85.0725 39.27 84.9137 39.3013L84.4713 39.3963C84.3463 39.4275 84.2188 39.4913 84.0913 39.5863C83.9906 39.6653 83.9051 39.7618 83.8387 39.8713C83.7762 39.9963 83.7438 40.1238 83.7438 40.3138C83.7438 40.4713 83.775 40.63 83.8387 40.7563C83.9025 40.8825 83.9963 40.9775 84.0913 41.0413C84.2064 41.118 84.3355 41.1715 84.4713 41.1988C84.6172 41.2249 84.7656 41.2353 84.9137 41.23C85.2937 41.23 85.5762 41.1675 85.7987 41.04C86.0212 40.9125 86.1787 40.755 86.2737 40.5975C86.3648 40.4294 86.429 40.248 86.4637 40.06C86.495 39.87 86.495 39.7438 86.495 39.6175V38.89C86.4637 38.985 86.37 39.0475 86.2425 39.08L86.2438 39.0813ZM93.2012 36.7725H89.7887V35.3175H95.7337V36.7725L92.0662 40.915H95.9875V42.37H89.5375V40.915L93.2012 36.7725ZM97.1225 37.31C97.28 36.835 97.535 36.4563 97.85 36.14C98.1774 35.8164 98.564 35.5588 98.9888 35.3813C99.4312 35.1913 99.9387 35.1288 100.489 35.1288C101.005 35.1276 101.518 35.213 102.006 35.3813C102.431 35.5588 102.818 35.8164 103.145 36.14C103.461 36.4563 103.714 36.8675 103.872 37.31C104.041 37.8094 104.126 38.333 104.125 38.86C104.129 39.3766 104.043 39.89 103.872 40.3775C103.715 40.82 103.46 41.2313 103.145 41.5475C102.818 41.8712 102.431 42.1287 102.006 42.3063C101.519 42.4771 101.005 42.5626 100.489 42.5588C99.9823 42.5628 99.4792 42.4773 99.0025 42.3063C98.56 42.1488 98.18 41.8938 97.8775 41.5475C97.5612 41.2313 97.3088 40.82 97.15 40.3775C96.9912 39.935 96.8975 39.3975 96.8975 38.86C96.8653 38.331 96.9516 37.8015 97.15 37.31H97.1225ZM98.8725 39.6813C98.9342 39.9355 99.0301 40.1802 99.1575 40.4088C99.2825 40.63 99.4738 40.7888 99.695 40.915C99.9163 41.0413 100.201 41.105 100.517 41.105C100.834 41.105 101.117 41.0425 101.34 40.915C101.562 40.7875 101.752 40.63 101.877 40.4088C102.002 40.1875 102.099 39.9663 102.163 39.6813C102.225 39.4288 102.257 39.1438 102.257 38.8588C102.259 38.5818 102.227 38.3056 102.163 38.0363C102.1 37.7513 102.005 37.53 101.877 37.3088C101.747 37.0946 101.562 36.9196 101.34 36.8025C101.119 36.6775 100.834 36.6125 100.517 36.6125C100.201 36.6125 99.9175 36.675 99.695 36.8025C99.4725 36.93 99.315 37.1188 99.1575 37.3088C99.0325 37.53 98.9362 37.7513 98.8725 38.0363C98.8087 38.3213 98.7775 38.5738 98.7775 38.8588L98.8725 39.6813ZM107.254 35.3063V36.2863H107.285C107.538 35.8738 107.854 35.59 108.235 35.4013C108.608 35.215 109.018 35.1174 109.435 35.1163C109.941 35.1163 110.385 35.1788 110.7 35.3375C111.012 35.4638 111.285 35.6714 111.49 35.9388C111.68 36.1913 111.806 36.5075 111.903 36.8563C111.981 37.252 112.023 37.6541 112.029 38.0575V42.3575H110.075V38.3875C110.075 37.8188 109.98 37.3875 109.79 37.0913C109.6 36.795 109.284 36.6488 108.81 36.6488C108.273 36.6488 107.893 36.8063 107.685 37.1238C107.478 37.4413 107.338 37.9463 107.338 38.6738V42.3738H105.409V35.3238L107.254 35.3063ZM124.791 32.6313V34.4338H119.637V36.5213H124.35V38.1963H119.637V40.6H124.888V42.4025H117.487V32.675H124.791V32.6313ZM132.6 35.2263C132.475 35.0363 132.315 34.8463 132.125 34.6888C131.933 34.5243 131.706 34.4055 131.461 34.3413C131.218 34.2534 130.961 34.2106 130.702 34.215C130.274 34.2042 129.849 34.3023 129.469 34.5C129.121 34.69 128.869 34.9425 128.646 35.2588C128.424 35.575 128.299 35.9213 128.204 36.3338C128.109 36.7463 128.046 37.1563 128.046 37.5675C128.046 37.9788 128.109 38.39 128.204 38.7675C128.299 39.145 128.456 39.495 128.646 39.8113C128.868 40.1275 129.121 40.38 129.469 40.57C129.849 40.7677 130.274 40.8658 130.702 40.855C131.365 40.855 131.872 40.665 132.253 40.255C132.632 39.845 132.853 39.3375 132.915 38.6738H135.002C134.94 39.2738 134.812 39.8438 134.59 40.3175C134.369 40.8238 134.052 41.235 133.705 41.5825C133.324 41.9219 132.885 42.1896 132.409 42.3725C131.883 42.5669 131.326 42.6635 130.765 42.6575C130.006 42.6575 129.343 42.5325 128.74 42.2775C128.138 42.0225 127.634 41.645 127.222 41.2025C126.798 40.7368 126.475 40.1876 126.274 39.59C126.052 38.99 125.957 38.325 125.957 37.5975C125.957 36.87 126.052 36.2063 126.274 35.5725C126.481 34.9683 126.804 34.4101 127.224 33.9288C127.636 33.4538 128.141 33.1063 128.741 32.8225C129.341 32.57 130.006 32.41 130.766 32.41C131.304 32.41 131.81 32.4725 132.284 32.6313C132.757 32.79 133.201 33.0113 133.58 33.2938C133.959 33.5763 134.276 33.9563 134.53 34.4C134.789 34.8624 134.951 35.3729 135.005 35.9H132.855C132.819 35.6636 132.733 35.4376 132.603 35.2375L132.6 35.2263ZM138.104 39.9663C138.218 40.1794 138.38 40.3634 138.577 40.5038C138.767 40.6288 138.99 40.7563 139.274 40.82C139.543 40.8831 139.819 40.915 140.096 40.915C140.298 40.9095 140.499 40.8881 140.697 40.8513C140.907 40.8222 141.11 40.7579 141.298 40.6613C141.481 40.5708 141.643 40.4411 141.771 40.2813C141.896 40.1238 141.961 39.9338 141.961 39.6813C141.961 39.4288 141.866 39.2063 141.709 39.0488C141.551 38.8913 141.329 38.7638 141.046 38.6363L140.129 38.3513L139.085 38.0663C138.717 37.9837 138.357 37.8674 138.01 37.7188C137.681 37.5953 137.372 37.4248 137.092 37.2125C136.808 36.9913 136.586 36.7375 136.43 36.4225C136.274 36.1075 136.177 35.7263 136.177 35.2975C136.177 34.7913 136.272 34.3475 136.494 34.0013C136.715 33.6213 137 33.3388 137.347 33.0838C137.695 32.8234 138.094 32.6401 138.518 32.5463C138.96 32.4213 139.402 32.3563 139.814 32.3563C140.303 32.3582 140.791 32.411 141.269 32.5138C141.744 32.6388 142.154 32.7988 142.534 33.0513C142.914 33.3038 143.196 33.62 143.387 34.0313C143.609 34.4438 143.704 34.9163 143.704 35.4863H141.616C141.585 35.2013 141.521 34.9488 141.426 34.7588C141.331 34.5688 141.174 34.4113 141.014 34.3163C140.854 34.2213 140.634 34.1263 140.414 34.095C140.194 34.0638 139.939 34.0325 139.686 34.0325C139.529 34.0325 139.339 34.0638 139.18 34.095C139.021 34.1263 138.864 34.19 138.705 34.285C138.546 34.38 138.452 34.475 138.357 34.6325C138.262 34.7575 138.232 34.9488 138.232 35.1388C138.232 35.3288 138.264 35.4863 138.327 35.6138C138.391 35.7413 138.549 35.835 138.77 35.93C138.991 36.025 139.276 36.12 139.655 36.215L141.155 36.595C141.411 36.6431 141.665 36.7066 141.914 36.785C142.247 36.893 142.566 37.0416 142.863 37.2275C143.179 37.4488 143.462 37.7025 143.685 38.0813C143.906 38.4288 144.032 38.8713 144.032 39.4413C144.031 39.8652 143.945 40.2845 143.78 40.675C143.622 41.055 143.338 41.4025 143.021 41.655C142.647 41.957 142.217 42.1821 141.756 42.3175C141.25 42.4738 140.681 42.5388 140.006 42.5388C139.484 42.54 138.963 42.4761 138.456 42.3488C137.95 42.2238 137.506 42.0013 137.129 41.7163C136.751 41.4313 136.433 41.0838 136.211 40.6413C135.97 40.1618 135.861 39.6268 135.895 39.0913H137.982C137.951 39.4713 137.982 39.7538 138.107 39.9763L138.104 39.9663Z" fill="#F58534"/>
</svg>
