<svg width="316" height="60" viewBox="0 0 316 60" fill="none" xmlns="http://www.w3.org/2000/svg">
<path d="M22.65 30.2984V25.3984C27.85 25.3984 31.85 20.2484 29.875 14.7984C29.125 12.7734 27.525 11.1484 25.5 10.4234C20.05 8.44844 14.9 12.4484 14.9 17.6484H10C10 9.37344 18 2.92344 26.675 5.62344C30.475 6.79844 33.475 9.82344 34.65 13.5984C37.35 22.2984 30.925 30.2984 22.65 30.2984Z" fill="#0080FF"/>
<path fill-rule="evenodd" clip-rule="evenodd" d="M17.775 20.5234H22.65V25.3984H17.775V20.5234ZM14.025 29.1484V25.3984H17.775V29.1484H14.025ZM10.875 22.2734H14.025V25.3984H10.875V22.2734Z" fill="#0080FF"/>
<path d="M55 12.3234C53.55 11.3234 51.75 10.7984 49.65 10.7984H45.075V25.3234H49.65C51.75 25.3234 53.55 24.7984 55 23.7234C55.8 23.1734 56.425 22.3734 56.85 21.3984C57.275 20.4234 57.5 19.2734 57.5 17.9734C57.5 16.6984 57.275 15.5484 56.85 14.5734C56.425 13.6234 55.8 12.8484 55 12.3234ZM47.75 13.2734H49.2C50.8 13.2734 52.125 13.5984 53.125 14.1984C54.225 14.8734 54.8 16.1484 54.8 17.9734C54.8 19.8734 54.225 21.1984 53.125 21.9234C52.175 22.5484 50.85 22.8734 49.225 22.8734H47.775V13.2734H47.75Z" fill="#0080FF"/>
<path d="M60.7 10.6234C60.25 10.6234 59.875 10.7734 59.575 11.0734C59.275 11.3734 59.1 11.7484 59.1 12.1734C59.1 12.6234 59.25 12.9984 59.575 13.2984C59.875 13.5984 60.25 13.7734 60.7 13.7734C61.15 13.7734 61.525 13.6234 61.825 13.2984C62.125 12.9984 62.3 12.5984 62.3 12.1734C62.3 11.7234 62.15 11.3484 61.825 11.0734C61.525 10.7734 61.125 10.6234 60.7 10.6234Z" fill="#0080FF"/>
<path d="M59.375 15.0984H61.95V25.3485H59.375V15.0984ZM71.325 15.9485C70.55 15.2485 69.675 14.8484 68.75 14.8484C67.325 14.8484 66.15 15.3484 65.225 16.2984C64.3 17.2484 63.85 18.4985 63.85 19.9735C63.85 21.4235 64.3 22.6485 65.225 23.6485C66.15 24.5985 67.325 25.0985 68.75 25.0985C69.75 25.0985 70.6 24.8235 71.3 24.2735V24.5235C71.3 25.3735 71.075 26.0235 70.625 26.4985C70.175 26.9485 69.55 27.1735 68.775 27.1735C67.575 27.1735 66.85 26.6985 65.925 25.4735L64.175 27.1485L64.225 27.2235C64.6 27.7485 65.175 28.2735 65.95 28.7735C66.725 29.2735 67.675 29.5235 68.825 29.5235C70.35 29.5235 71.6 29.0485 72.5 28.1235C73.425 27.1985 73.875 25.9485 73.875 24.3985V15.0984H71.35V15.9485H71.325ZM70.65 21.9985C70.2 22.4985 69.625 22.7485 68.875 22.7485C68.125 22.7485 67.55 22.4985 67.125 21.9985C66.675 21.4985 66.45 20.8235 66.45 19.9985C66.45 19.1735 66.675 18.4735 67.125 17.9735C67.575 17.4734 68.15 17.1985 68.875 17.1985C69.625 17.1985 70.2 17.4485 70.65 17.9735C71.1 18.4735 71.325 19.1735 71.325 19.9985C71.325 20.8235 71.075 21.4985 70.65 21.9985ZM76.05 15.0984H78.625V25.3485H76.05V15.0984Z" fill="#0080FF"/>
<path d="M77.375 10.6234C76.925 10.6234 76.55 10.7734 76.25 11.0734C75.95 11.3734 75.775 11.7484 75.775 12.1734C75.775 12.6234 75.925 12.9984 76.25 13.2984C76.55 13.5984 76.925 13.7734 77.375 13.7734C77.825 13.7734 78.2 13.6234 78.5 13.2984C78.8 12.9984 78.975 12.5984 78.975 12.1734C78.975 11.7234 78.825 11.3484 78.5 11.0734C78.2 10.7734 77.8 10.6234 77.375 10.6234Z" fill="#0080FF"/>
<path d="M84.275 12.3484H81.75V15.1234H80.275V17.4734H81.75V21.7234C81.75 23.0484 82.025 23.9984 82.55 24.5484C83.075 25.0984 84 25.3734 85.325 25.3734C85.75 25.3734 86.175 25.3484 86.575 25.3234H86.7V22.9734L85.825 23.0234C85.2 23.0234 84.8 22.9234 84.6 22.6984C84.4 22.4734 84.3 22.0234 84.3 21.3484V17.4484H86.7V15.0984H84.3V12.3484H84.275ZM98.75 10.7984H101.325V25.3234H98.75V10.7984ZM127.35 21.6734C126.9 22.1984 126.425 22.6484 126.05 22.8734C125.7 23.0984 125.25 23.2234 124.725 23.2234C123.975 23.2234 123.35 22.9484 122.85 22.3734C122.35 21.7984 122.1 21.0734 122.1 20.1984C122.1 19.3234 122.35 18.5984 122.825 18.0484C123.325 17.4734 123.925 17.1984 124.675 17.1984C125.5 17.1984 126.375 17.7234 127.125 18.5984L128.825 16.9734C127.725 15.5234 126.3 14.8484 124.6 14.8484C123.175 14.8484 121.95 15.3734 120.95 16.3734C119.95 17.3734 119.45 18.6734 119.45 20.1984C119.45 21.7234 119.95 22.9984 120.95 24.0234C121.95 25.0484 123.175 25.5484 124.6 25.5484C126.475 25.5484 127.975 24.7484 128.975 23.2734L127.35 21.6734ZM137.925 16.5234C137.55 16.0234 137.05 15.5984 136.45 15.2984C135.825 14.9984 135.125 14.8484 134.325 14.8484C132.875 14.8484 131.7 15.3734 130.825 16.4234C129.975 17.4734 129.525 18.7484 129.525 20.2734C129.525 21.8234 130 23.0984 130.95 24.0984C131.875 25.0734 133.15 25.5734 134.675 25.5734C136.4 25.5734 137.85 24.8734 138.9 23.4734L138.95 23.3984L137.275 21.7734C137.125 21.9734 136.9 22.1734 136.7 22.3734C136.45 22.6234 136.2 22.7984 135.95 22.9234C135.575 23.1234 135.125 23.1984 134.65 23.1984C133.925 23.1984 133.35 22.9984 132.9 22.5734C132.475 22.1984 132.225 21.6734 132.175 21.0234H139L139.025 20.0734C139.025 19.3984 138.925 18.7734 138.75 18.1734C138.575 17.5984 138.3 17.0484 137.925 16.5234ZM132.3 18.9484C132.425 18.4484 132.65 18.0484 132.975 17.7234C133.325 17.3734 133.775 17.1984 134.325 17.1984C134.95 17.1984 135.425 17.3734 135.75 17.7234C136.05 18.0484 136.225 18.4484 136.275 18.9234H132.3V18.9484ZM147.825 15.8734C147.05 15.1984 145.975 14.8734 144.625 14.8734C143.775 14.8734 142.975 15.0734 142.25 15.4234C141.575 15.7734 140.925 16.3234 140.5 17.0734L140.525 17.0984L142.175 18.6734C142.85 17.5984 143.6 17.2234 144.6 17.2234C145.15 17.2234 145.575 17.3734 145.925 17.6484C146.275 17.9234 146.425 18.2984 146.425 18.7484V19.2484C145.775 19.0484 145.15 18.9484 144.525 18.9484C143.25 18.9484 142.2 19.2484 141.425 19.8484C140.65 20.4484 140.25 21.3234 140.25 22.3984C140.25 23.3484 140.575 24.1484 141.25 24.7234C141.925 25.2734 142.75 25.5734 143.725 25.5734C144.7 25.5734 145.625 25.1734 146.45 24.4984V25.3484H148.975V18.7484C149.025 17.5234 148.625 16.5484 147.825 15.8734ZM143.25 21.4234C143.55 21.2234 143.95 21.1234 144.475 21.1234C145.1 21.1234 145.75 21.2484 146.425 21.4984V22.4984C145.875 23.0234 145.125 23.2734 144.2 23.2734C143.75 23.2734 143.4 23.1734 143.175 22.9734C142.95 22.7734 142.825 22.5484 142.825 22.2234C142.825 21.8984 142.975 21.6234 143.25 21.4234ZM158.925 16.0734C158.2 15.2734 157.2 14.8734 155.925 14.8734C154.9 14.8734 154.075 15.1734 153.45 15.7484V15.1234H150.925V25.3734H153.5V19.6984C153.5 18.9234 153.675 18.2984 154.05 17.8734C154.425 17.4234 154.9 17.2234 155.575 17.2234C156.15 17.2234 156.6 17.4234 156.925 17.7984C157.25 18.1984 157.425 18.7234 157.425 19.3984V25.3234H160V19.3984C160 17.9984 159.65 16.8734 158.925 16.0734ZM95.525 15.8734C94.75 15.1984 93.675 14.8734 92.325 14.8734C91.475 14.8734 90.675 15.0734 89.95 15.4234C89.275 15.7734 88.625 16.3234 88.2 17.0734L88.225 17.0984L89.875 18.6734C90.55 17.5984 91.3 17.2234 92.3 17.2234C92.85 17.2234 93.275 17.3734 93.625 17.6484C93.975 17.9234 94.125 18.2984 94.125 18.7484V19.2484C93.475 19.0484 92.85 18.9484 92.225 18.9484C90.95 18.9484 89.9 19.2484 89.125 19.8484C88.35 20.4484 87.95 21.3234 87.95 22.3984C87.95 23.3484 88.275 24.1484 88.95 24.7234C89.625 25.2734 90.45 25.5734 91.425 25.5734C92.4 25.5734 93.325 25.1734 94.15 24.4984V25.3484H96.675V18.7484C96.7 17.5234 96.3 16.5484 95.525 15.8734ZM90.95 21.4234C91.25 21.2234 91.65 21.1234 92.175 21.1234C92.8 21.1234 93.45 21.2484 94.125 21.4984V22.4984C93.575 23.0234 92.825 23.2734 91.9 23.2734C91.45 23.2734 91.1 23.1734 90.875 22.9734C90.65 22.7734 90.525 22.5484 90.525 22.2234C90.525 21.8984 90.65 21.6234 90.95 21.4234ZM110.675 25.5484C106.55 25.5484 103.175 22.1984 103.175 18.0484C103.175 13.8984 106.525 10.5484 110.675 10.5484C114.8 10.5484 118.175 13.8984 118.175 18.0484C118.175 22.1984 114.8 25.5484 110.675 25.5484ZM110.675 13.2234C108 13.2234 105.825 15.3984 105.825 18.0734C105.825 20.7484 108 22.9234 110.675 22.9234C113.35 22.9234 115.525 20.7484 115.525 18.0734C115.525 15.3984 113.35 13.2234 110.675 13.2234Z" fill="#0080FF"/>
</svg>
