<svg width="151" height="50" viewBox="0 0 151 50" fill="none" xmlns="http://www.w3.org/2000/svg">
<path d="M37.8754 17.3898H20.3734V22.5831H32.787C32.1719 29.8523 26.1147 32.9725 20.3944 32.9725C18.5822 32.9804 16.7866 32.6273 15.1124 31.9337C13.4382 31.2401 11.919 30.2199 10.6433 28.9327C9.36774 27.6455 8.36134 26.1171 7.6829 24.4367C7.00447 22.7563 6.66758 20.9576 6.69192 19.1456C6.69192 11.2837 12.7785 5.23066 20.4111 5.23066C26.2992 5.23066 29.7688 8.98409 29.7688 8.98409L33.4034 5.21808C33.4034 5.21808 28.7344 0.0220032 20.221 0.0220032C9.38013 0.0220032 0.993988 9.17141 0.993988 19.0533C0.993988 28.7367 8.88247 38.1797 20.495 38.1797C30.7096 38.1797 38.1871 31.1817 38.1871 20.8343C38.1871 18.6507 37.8698 17.3898 37.8698 17.3898H37.8754Z" fill="#4885ED"/>
<path d="M52.2139 13.628C45.0314 13.628 39.8842 19.2434 39.8842 25.7899C39.8842 32.4356 44.8748 38.1545 52.2978 38.1545C59.0162 38.1545 64.5198 33.02 64.5198 25.9325C64.5198 17.8245 58.1173 13.6266 52.2139 13.6266V13.628ZM52.2838 18.4452C55.8149 18.4452 59.1616 21.3012 59.1616 25.9018C59.1616 30.4031 55.8289 33.3415 52.267 33.3415C48.3528 33.3415 45.2774 30.2074 45.2774 25.8654C45.2774 21.6157 48.3249 18.4452 52.295 18.4452H52.2838Z" fill="#DB3236"/>
<path d="M79.0275 13.628C71.8449 13.628 66.6978 19.2434 66.6978 25.7899C66.6978 32.4356 71.6884 38.1545 79.1113 38.1545C85.8298 38.1545 91.3334 33.02 91.3334 25.9325C91.3334 17.8245 84.9309 13.6266 79.0275 13.6266V13.628ZM79.0974 18.4452C82.6285 18.4452 85.9751 21.3012 85.9751 25.9018C85.9751 30.4031 82.6425 33.3415 79.0806 33.3415C75.1664 33.3415 72.091 30.2074 72.091 25.8654C72.091 21.6157 75.1384 18.4452 79.1086 18.4452H79.0974Z" fill="#F4C20D"/>
<path d="M105.327 13.642C98.734 13.642 93.5533 19.4154 93.5533 25.8962C93.5533 33.2772 99.5602 38.1728 105.212 38.1728C108.707 38.1728 110.566 36.7846 111.922 35.1924V37.6108C111.922 41.8423 109.353 44.3767 105.475 44.3767C101.728 44.3767 99.8495 41.5907 99.1841 40.011L94.4703 41.9681C96.1422 45.5049 99.5084 49.1912 105.514 49.1912C112.084 49.1912 117.064 45.0631 117.064 36.4044V14.3787H111.942V16.456C110.362 14.7506 108.198 13.642 105.329 13.642H105.327ZM105.802 18.4509C109.034 18.4509 112.353 21.2104 112.353 25.9228C112.353 30.7134 109.039 33.3527 105.731 33.3527C102.216 33.3527 98.9465 30.501 98.9465 25.9675C98.9465 21.2593 102.343 18.4495 105.802 18.4495V18.4509Z" fill="#4885ED"/>
<path d="M139.956 13.6126C133.738 13.6126 128.517 18.5613 128.517 25.8585C128.517 33.5834 134.336 38.1644 140.539 38.1644C145.728 38.1644 148.926 35.3266 150.814 32.7824L146.574 29.9614C145.474 31.6668 143.634 33.3373 140.565 33.3373C137.118 33.3373 135.533 31.4501 134.55 29.6189L150.994 22.797L150.155 20.798C148.567 16.8838 144.861 13.6126 139.957 13.6126H139.956ZM140.17 18.3292C142.411 18.3292 144.023 19.5203 144.708 20.9489L133.725 25.5383C133.25 21.9848 136.619 18.3292 140.156 18.3292H140.17Z" fill="#DB3236"/>
<path d="M120.665 37.4374H126.066V1.29129H120.665V37.4374Z" fill="#3CBA54"/>
</svg>
