<svg width="150" height="75" viewBox="0 0 150 75" fill="none" xmlns="http://www.w3.org/2000/svg">
<path d="M60.1563 44.1463H57.0938V30.705H60.1563V36.1513H66.9713V30.705H70.0338V44.145H66.9713V38.52H60.1563V44.1463ZM75.5875 38.7538C75.5875 41.1313 76.3375 42.1213 78.87 42.1213C81.4025 42.1213 82.12 41.1213 82.12 38.7538V30.7038H85.18V38.8288C85.3375 40.095 85.0362 41.375 84.33 42.4375C83.13 43.7525 81.3888 44.2938 78.8575 44.2938C76.3262 44.2938 74.5625 43.7525 73.3675 42.4375C72.6975 41.715 72.5325 40.5313 72.5325 38.8288V30.7038H75.5737L75.5875 38.7538ZM95.1912 30.7038L101.391 44.145H98L96.6625 40.9425H90.3375L89.0413 44.145H85.7875L91.9438 30.7038H95.1912ZM91.32 38.5488H95.6575L93.4488 33.3838L91.32 38.5488ZM122.125 30.705L117.625 44.145H113.875L110.787 34.125L108.075 44.1588H104.344L99.4975 30.7188H102.785L106.16 41.0513L108.997 30.7188H112.606L115.866 41.0513L119.008 30.7188L122.125 30.705ZM126.256 36.17H134.728V38.5H126.228C126.244 40.915 127.277 41.7925 129.69 41.7925H134.715V44.1338H129.548C127.943 44.2838 126.335 43.8675 125.007 42.955C124.231 42.3215 123.622 41.5073 123.234 40.5837C122.846 39.6601 122.69 38.6554 122.78 37.6575C122.78 32.9075 124.949 30.695 129.63 30.695H134.714V33.0375H129.689C127.484 33.0363 126.37 34.045 126.245 36.16M137.425 30.705H140.625V44.1463H137.425V30.705Z" fill="#0A0808"/>
<path d="M27.3537 46.31C27.3987 46.2725 27.4125 46.21 27.3887 46.1563C24.2609 39.4439 20.3617 33.1188 15.77 27.3088C15.77 27.3088 12.12 30.7713 12.3787 34.2463C12.503 35.8655 13.264 37.3695 14.495 38.4288C17.6787 41.5325 25.3887 45.45 27.1825 46.3363C27.2387 46.3675 27.31 46.3563 27.355 46.3113M26.1625 48.9663C26.1506 48.932 26.1283 48.9023 26.0987 48.8812C26.0692 48.8602 26.0338 48.8488 25.9975 48.8488V48.8463L13.16 49.2938C14.5512 51.7763 16.91 53.7038 19.3387 53.1125C21.0237 52.6913 24.8437 50.0275 26.0887 49.1288V49.125C26.185 49.0375 26.1512 48.9675 26.1512 48.9675M26.3562 47.8125C26.4187 47.7125 26.3062 47.625 26.3062 47.625L26.3075 47.62C20.6825 43.82 9.7425 37.9788 9.7425 37.9788C9.1511 39.8094 9.27594 41.7961 10.0918 43.5383C10.9077 45.2805 12.3539 46.6485 14.1387 47.3663C14.9228 47.677 15.7517 47.8593 16.5937 47.9063C16.7862 47.9438 24.2287 47.91 26.2212 47.9013C26.2775 47.895 26.3275 47.8613 26.3537 47.8113M27.2087 21.7663C26.6487 21.8163 25.1412 22.1588 25.1412 22.1588C23.15 22.6663 21.5625 24.165 20.9387 26.1213C20.5864 27.4563 20.5925 28.8606 20.9562 30.1925C22.09 35.225 27.6737 43.4975 28.8712 45.2325C28.9562 45.3175 29.0262 45.2863 29.0262 45.2863C29.0987 45.2688 29.1487 45.2013 29.145 45.1263H29.1475C30.9925 26.66 27.21 21.7513 27.21 21.7513M31.4562 45.2812C31.5262 45.31 31.6062 45.28 31.6412 45.2125H31.6425C32.875 43.43 38.4237 35.2038 39.5512 30.1925C39.8887 28.8575 39.8962 27.46 39.5725 26.1213C39.2615 25.154 38.7085 24.2823 37.966 23.5888C37.2236 22.8953 36.3162 22.4031 35.33 22.1588C35.33 22.1588 34.3487 21.9113 33.3087 21.765C33.3087 21.765 29.5037 26.6625 31.3537 45.14H31.3562C31.3575 45.2025 31.3962 45.2588 31.4562 45.28M34.4937 48.86C34.4937 48.86 34.3687 48.875 34.3487 48.9575C34.3337 49.02 34.3525 49.0875 34.3987 49.1325C35.6237 50.0138 39.3487 52.6325 41.1487 53.1238C41.1487 53.1238 44.4675 54.2538 47.3487 49.3038L34.4962 48.8538L34.4937 48.86ZM50.7687 37.95C50.7687 37.95 39.8562 43.805 34.2125 47.6125C34.1842 47.6337 34.1629 47.6629 34.1515 47.6964C34.1402 47.7298 34.1392 47.766 34.1487 47.8C34.1487 47.8 34.2025 47.8963 34.2812 47.8963V47.8988L44.1387 47.8738C44.8966 47.8141 45.6414 47.6423 46.3487 47.3638C48.1925 46.6413 49.6762 45.2213 50.4812 43.4113C51.2367 41.6856 51.3389 39.7442 50.7687 37.9488M33.1812 46.3237C33.2312 46.3612 33.3 46.3663 33.3562 46.3363C35.1937 45.4188 42.8475 41.5275 46.0162 38.44C47.2468 37.3726 48.0068 35.863 48.1312 34.2388C48.3625 30.645 44.7562 27.32 44.7562 27.32C40.1738 33.1148 36.2809 39.4231 33.1562 46.1175H33.16C33.1262 46.1863 33.14 46.2675 33.195 46.3225" fill="#E12229"/>
</svg>
