<svg width="150" height="75" viewBox="0 0 150 75" fill="none" xmlns="http://www.w3.org/2000/svg">
<path d="M61.5037 26.76L64.9737 25.9275V42.625C64.9737 44.4575 65.52 45.55 66.5987 45.9C66.0612 46.9188 65.1462 47.4275 63.8512 47.4275C62.2762 47.4275 61.4912 46.3363 61.4912 44.1525V26.76M72.01 26.5375C72.2748 26.5334 72.5377 26.5836 72.7824 26.6851C73.027 26.7866 73.2483 26.9371 73.4325 27.1275C73.6228 27.3117 73.7734 27.533 73.8749 27.7776C73.9764 28.0223 74.0266 28.2852 74.0225 28.55C74.0266 28.8149 73.9764 29.0777 73.8749 29.3224C73.7734 29.5671 73.6228 29.7883 73.4325 29.9725C73.2483 30.1629 73.027 30.3134 72.7824 30.4149C72.5377 30.5164 72.2748 30.5666 72.01 30.5625C71.7451 30.5666 71.4823 30.5164 71.2376 30.4149C70.9929 30.3134 70.7717 30.1629 70.5875 29.9725C70.3971 29.7883 70.2466 29.5671 70.1451 29.3224C70.0436 29.0777 69.9934 28.8149 69.9975 28.55C69.9934 28.2852 70.0436 28.0223 70.1451 27.7776C70.2466 27.533 70.3971 27.3117 70.5875 27.1275C70.7717 26.9371 70.9929 26.7866 71.2376 26.6851C71.4823 26.5836 71.7451 26.5334 72.01 26.5375ZM70.22 47.1625V35.1425H68.32V32.2975H73.7325V47.1625H70.2325M87.3325 47.1625V38.5713C87.3325 37.3038 87.09 36.3775 86.6037 35.7963C86.1175 35.215 85.3237 34.9213 84.2237 34.9213C83.7137 34.9213 83.1712 35.065 82.5925 35.3513C82.0137 35.6375 81.5625 35.995 81.2387 36.42V47.1625H77.7687V32.2975H80.2687L80.8937 33.6725C81.8375 32.5625 83.2312 32.0063 85.0712 32.0063C86.8387 32.0063 88.2337 32.5363 89.2562 33.5938C90.2787 34.6513 90.79 36.1313 90.79 38.0288V47.1488H87.32M97.1737 39.6825C97.1737 42.9575 98.3537 44.595 100.711 44.595C101.213 44.6112 101.71 44.503 102.159 44.2801C102.609 44.0572 102.996 43.7265 103.286 43.3175C103.921 42.465 104.236 41.255 104.236 39.6925C104.236 36.4638 103.061 34.8488 100.711 34.8488C99.6287 34.8488 98.7675 35.2738 98.13 36.1263C97.4925 36.9788 97.1725 38.1663 97.1725 39.6925L97.1737 39.6825ZM93.565 39.6825C93.565 37.415 94.22 35.5575 95.5275 34.145C96.835 32.7325 98.565 32.02 100.712 32.02C102.97 32.02 104.712 32.705 105.972 34.0738C107.232 35.4425 107.847 37.3175 107.847 39.695C107.847 42.0638 107.222 43.9475 105.937 45.345C104.652 46.7425 102.937 47.4413 100.712 47.4413C98.455 47.4413 96.7125 46.735 95.445 45.325C94.1775 43.915 93.5637 42.0375 93.5637 39.6963M120.201 35.85C119.461 35.2575 118.701 34.975 117.884 34.975C116.509 34.975 115.426 35.3975 114.679 36.245C113.931 37.0925 113.554 38.3075 113.554 39.8888C113.554 42.9788 115.044 44.5138 118.024 44.5138C118.356 44.5138 118.766 44.4138 119.252 44.2138C119.739 44.0138 120.055 43.8138 120.202 43.61V35.85H120.201ZM120.201 47.1625V46.26C119.914 46.575 119.43 46.85 118.744 47.085C118.057 47.32 117.351 47.4388 116.619 47.4388C114.544 47.4388 112.914 46.7813 111.725 45.4675C110.536 44.1538 109.941 42.32 109.941 39.97C109.941 37.62 110.624 35.72 111.989 34.22C113.354 32.72 115.064 32.0075 117.116 32.0075C118.246 32.0075 119.272 32.2388 120.197 32.7013V26.7463L123.667 25.9138V47.1638H120.2M129.917 38.1825H137.217C136.976 36.0075 135.775 34.9325 133.609 34.9325C131.627 34.9325 130.396 36.02 129.916 38.1825H129.917ZM140.411 40.7913H129.792C129.857 41.975 130.264 42.8963 131.014 43.5413C131.764 44.1863 132.772 44.5263 134.039 44.5263C135.62 44.5263 136.824 44.1138 137.646 43.2913L138.994 45.9413C137.771 46.9325 135.949 47.4413 133.524 47.4413C131.256 47.4413 129.464 46.7788 128.146 45.4488C126.829 44.1188 126.167 42.2688 126.167 39.89C126.167 37.55 126.892 35.64 128.34 34.2C129.787 32.76 131.525 32.0213 133.552 32.0213C135.707 32.0213 137.427 32.665 138.742 33.95C140.057 35.235 140.7 36.875 140.7 38.8625C140.7 39.2875 140.602 39.9313 140.409 40.7913" fill="#231F20"/>
<path d="M18.5462 34.385L16.5525 20.76L8.36874 15.6725L11.025 28.525L18.545 34.3875L18.5462 34.385ZM20.8212 49.9512L19.4162 40.3512L12.2362 34.37L14.1637 43.68L20.82 49.9512H20.8212ZM15.2462 48.8938L16.6675 55.76L22.595 62.0512L21.58 55.1237L15.2462 48.895V48.8938ZM34.44 45.9188L31.4112 43.6062L31.4337 44.1488C31.4361 44.2025 31.4246 44.2559 31.4003 44.3038C31.376 44.3518 31.3397 44.3927 31.295 44.4225L29 45.9625L31.4837 47.99C31.4962 48 31.5 48.0075 31.5062 48.015C31.5187 48.0275 31.5312 48.04 31.5412 48.055C31.5462 48.0625 31.5512 48.0713 31.5562 48.08C31.5612 48.0888 31.5725 48.1087 31.5775 48.1238C31.5809 48.1332 31.5838 48.1428 31.5862 48.1525C31.5912 48.1688 31.5937 48.185 31.595 48.2025L31.7 50.595L34.4875 52.94L34.4287 45.92L34.44 45.9188ZM44.8237 38.49L44.2312 45.3363L42.2687 43.9712L42.4812 40.48C42.4812 40.4425 42.4775 40.4275 42.4762 40.415C42.475 40.4025 42.475 40.395 42.4725 40.3862C42.4666 40.3619 42.4578 40.3384 42.4462 40.3162C42.43 40.2862 42.4137 40.2638 42.3937 40.2437L42.3412 40.1988L38.12 37.4113L38.1825 34.3525L44.825 38.49" fill="#123D10"/>
<path d="M30.1563 28.94L29.6038 16.015L17.1913 20.785L19.22 34.63L30.1575 28.9387L30.1563 28.94ZM30.8 44L30.3938 34.4725L20.0563 40.3562L21.5063 50.2612L30.8 43.9988V44ZM31.0088 48.8288L22.2175 55.1188L23.285 62.4087L31.315 56.0112L31.0088 48.8288ZM35.0713 45.9237L35.13 52.9712L41.395 47.9738L41.8125 41.1012L35.0713 45.9237ZM50.6963 34.745L49.8175 41.25L44.875 45.2L45.455 38.4937L50.6975 34.7412" fill="#33B652"/>
<path d="M31.625 48.2187L31.6125 48.15L31.6037 48.1212C31.5975 48.1062 31.5912 48.0912 31.5825 48.0775L31.5675 48.0525C31.5575 48.0375 31.545 48.025 31.5325 48.0125L31.515 47.9937L29.0275 45.9612L31.3112 44.4237C31.356 44.3939 31.3922 44.353 31.4165 44.3051C31.4408 44.2571 31.4524 44.2037 31.45 44.15L31.4275 43.6075L34.4562 45.92L34.515 52.94L31.7275 50.595L31.6275 48.22L31.625 48.2187ZM19.4312 40.3525L20.8362 49.9525L14.18 43.6812L12.2525 34.3712L19.4325 40.3525H19.4312ZM30.8 44L21.5062 50.2625L20.0562 40.3575L30.3937 34.4737L30.8 44.0012V44ZM29.605 16.0187L30.1575 28.9437L19.22 34.635L17.1912 20.79L29.6037 16.02L29.605 16.0187ZM16.555 20.775L18.5487 34.4L11.0287 28.5375L8.37124 15.6975L16.555 20.785V20.775ZM16.6712 55.7625L15.25 48.8962L21.5837 55.125L22.5987 62.0525L16.6712 55.7612V55.7625ZM31.3175 56.0125L23.2875 62.41L22.22 55.12L31.0112 48.83L31.3175 56.0125ZM41.3987 47.975L35.1337 52.9725L35.075 45.925L41.8162 41.1025L41.3987 47.975ZM42.2737 43.9725L42.4862 40.4812C42.4862 40.4437 42.4825 40.4287 42.4812 40.4162C42.48 40.4037 42.48 40.3962 42.4775 40.3875C42.4716 40.3632 42.4628 40.3397 42.4512 40.3175C42.435 40.2875 42.4187 40.265 42.3987 40.245L42.3462 40.2L38.125 37.4125L38.1875 34.3537L44.83 38.4912L44.2375 45.3375L42.275 43.9725H42.2737ZM44.88 45.2037L45.46 38.4975L50.7025 34.745L49.8175 41.25L44.875 45.2L44.88 45.2037ZM51.4262 34.0462L51.4162 33.9962C51.4125 33.9787 51.4075 33.9625 51.4 33.9462L51.3875 33.9175C51.3785 33.9012 51.368 33.8857 51.3562 33.8712L51.3375 33.8487C51.3225 33.8337 51.3062 33.8212 51.2875 33.8087L51.2625 33.79L44.0875 29.815C43.9875 29.76 43.8675 29.7625 43.7712 29.8225L37.7162 33.5225C37.7062 33.5287 37.6987 33.535 37.6912 33.5437C37.6837 33.5525 37.6687 33.56 37.66 33.5687C37.6512 33.5775 37.6412 33.5912 37.635 33.6025L37.6125 33.6325C37.605 33.645 37.6 33.66 37.5937 33.6737C37.5875 33.6875 37.5837 33.695 37.5812 33.7062C37.5787 33.7175 37.5762 33.7375 37.5737 33.7537C37.5712 33.77 37.5687 33.7737 37.5687 33.785L37.5 36.9975L35.0375 35.37C34.935 35.3025 34.8037 35.3 34.7 35.3637L31.1562 37.53L31.0025 33.9275V33.8587C31 33.8462 30.995 33.8362 30.99 33.8262L30.9725 33.7887C30.9662 33.7762 30.96 33.7675 30.9512 33.7575L30.9262 33.7262C30.9162 33.7162 30.9062 33.7075 30.895 33.7012C30.8837 33.695 30.8825 33.6887 30.875 33.6837L27.1875 31.2062L30.64 29.41C30.7487 29.3537 30.815 29.2387 30.8087 29.1175L30.2287 15.555C30.2275 15.5387 30.2237 15.5225 30.2212 15.505C30.2112 15.4575 30.2 15.43 30.1862 15.4075C30.165 15.3762 30.1512 15.3575 30.1337 15.3425L30.0875 15.305C30.08 15.3 30.0712 15.2975 30.0625 15.2925L20.75 10.7962C20.678 10.761 20.5952 10.7547 20.5187 10.7787L7.83124 14.7287C7.78999 14.7462 7.76874 14.7562 7.74749 14.77C7.73874 14.7762 7.73499 14.7825 7.72749 14.7887C7.71124 14.8012 7.69499 14.8137 7.68249 14.8312C7.66999 14.8487 7.66624 14.8562 7.65749 14.8687C7.64874 14.8812 7.64124 14.8937 7.63499 14.9062C7.62874 14.9187 7.62499 14.94 7.62249 14.9562C7.61999 14.9662 7.61499 14.9762 7.61374 14.9875C7.61249 15.0075 7.61374 15.025 7.61499 15.04C7.61624 15.055 7.61499 15.0687 7.61749 15.0837L10.4487 28.7637C10.4637 28.8362 10.5037 28.9012 10.5637 28.9487L14.4062 31.9437L11.625 33.2662C11.6075 33.2787 11.6025 33.2787 11.6 33.2787L11.54 33.3287L11.5175 33.3537C11.5044 33.3705 11.4931 33.3885 11.4837 33.4075C11.4612 33.4537 11.4537 33.4825 11.45 33.5112C11.4487 33.5537 11.4487 33.5787 11.4537 33.6037L13.5837 43.9037C13.5968 43.967 13.6291 44.0246 13.6762 44.0687L16.3512 46.5875L14.5787 47.6712C14.5562 47.6837 14.535 47.7025 14.5162 47.7212C14.4875 47.755 14.475 47.775 14.4637 47.7962C14.4463 47.8299 14.4345 47.8663 14.4287 47.9037C14.425 47.9337 14.4275 47.9637 14.4325 47.9937L16.0825 55.9725C16.095 56.0287 16.12 56.0812 16.1612 56.1225L22.8362 63.2075C22.8462 63.2175 22.8575 63.2262 22.8687 63.235C22.9012 63.26 22.9237 63.2725 22.9475 63.2825C22.9912 63.2987 23.0287 63.3075 23.0662 63.3075C23.0977 63.3068 23.1289 63.3013 23.1587 63.2912L23.2037 63.275C23.2162 63.2687 23.2262 63.2587 23.2375 63.25C23.2487 63.2412 23.255 63.2425 23.2625 63.2375L31.8462 56.4C31.925 56.3375 31.9687 56.24 31.965 56.14L31.765 51.4437L34.6325 53.8562L34.7 53.9L34.7412 53.9125C34.7715 53.9227 34.8031 53.9281 34.835 53.9287C34.8662 53.9287 34.8975 53.9225 34.9262 53.9137L34.9687 53.8987C34.985 53.8912 34.9975 53.88 35.0112 53.87L41.9112 48.37C41.9812 48.3137 42.0362 48.2325 42.0287 48.1425L42.2387 44.6987L44.3325 46.1562C44.3525 46.1662 44.3575 46.1725 44.3637 46.175C44.37 46.1775 44.3887 46.185 44.4012 46.19L44.4262 46.2C44.4537 46.2075 44.4825 46.2125 44.5112 46.2125C44.54 46.2125 44.5737 46.2062 44.6037 46.1975L44.6462 46.185C44.6637 46.1762 44.6775 46.165 44.6937 46.155L50.3225 41.6725C50.385 41.6225 50.4275 41.5475 50.4387 41.4675L51.435 34.1L51.4375 34.04" fill="#231F20"/>
</svg>
