<svg width="150" height="75" viewBox="0 0 150 75" fill="none" xmlns="http://www.w3.org/2000/svg">
<path d="M65.3463 40.125H74.5762L69.6788 32.3075L60.7313 46.53H56.6813L67.5 29.4938C67.9713 28.835 68.725 28.3638 69.6663 28.3638C70.5138 28.3638 71.2663 28.7388 71.7388 29.4013L82.6637 46.4488H78.625L76.7413 43.2463H67.4163L65.3463 40.125ZM107.636 43.2338V28.4463H104.15V44.6463C104.15 45.1175 104.338 45.4938 104.621 45.8713C104.996 46.2463 105.375 46.4363 105.846 46.4363H121.575L123.648 43.2338H107.636ZM50.5588 40.6088C53.95 40.6088 56.5863 37.8775 56.5863 34.5813C56.5863 31.19 53.855 28.5538 50.5588 28.5538H35.4875V46.5438H38.9725V31.66H50.3688C51.1418 31.6646 51.8818 31.9737 52.4284 32.5203C52.975 33.0669 53.2842 33.807 53.2888 34.58C53.2842 35.3528 52.9752 36.0927 52.4289 36.6392C51.8825 37.1858 51.1428 37.4951 50.37 37.5H40.67L50.9363 46.4475H55.9288L48.9588 40.6075L50.5588 40.6088ZM14.1088 46.4488C9.11625 46.4488 5.16125 42.3988 5.16125 37.5013C5.16125 32.5088 9.21125 28.5538 14.1088 28.5538H24.5638C29.5563 28.5538 33.5113 32.6038 33.5113 37.5013C33.5113 42.4938 29.4613 46.4488 24.5638 46.4488H14.1088ZM24.375 43.2463C25.921 43.2371 27.4011 42.6188 28.4944 41.5256C29.5876 40.4324 30.2058 38.9523 30.215 37.4063C30.2058 35.8602 29.5876 34.3801 28.4944 33.2869C27.4011 32.1937 25.921 31.5754 24.375 31.5663H14.3913C12.8452 31.5754 11.3651 32.1937 10.2719 33.2869C9.17867 34.3801 8.56044 35.8602 8.55125 37.4063C8.56044 38.9523 9.17867 40.4324 10.2719 41.5256C11.3651 42.6188 12.8452 43.2371 14.3913 43.2463H24.375ZM89.9288 46.4488C84.9363 46.4488 80.9813 42.3988 80.9813 37.5013C80.9813 32.5088 85.0313 28.5538 89.9288 28.5538H102.361L100.289 31.7563H90.1163C88.5702 31.7654 87.0901 32.3837 85.9969 33.4769C84.9037 34.5701 84.2854 36.0502 84.2763 37.5963C84.2854 39.1423 84.9037 40.6224 85.9969 41.7156C87.0901 42.8088 88.5702 43.4271 90.1163 43.4363H102.549L100.476 46.6388H89.9263L89.9288 46.4488ZM132.219 43.2463C129.594 43.2463 127.321 41.4563 126.661 39.0088H141.449L143.521 35.8063H126.756C127.415 33.3563 129.676 31.5688 132.314 31.5688H142.486L144.559 28.3663H132.125C127.133 28.3663 123.178 32.4163 123.178 37.3138C123.178 42.3063 127.228 46.2613 132.125 46.2613H142.769L144.841 43.0588H132.22L132.219 43.2463Z" fill="#E30613"/>
</svg>
