<svg xmlns="http://www.w3.org/2000/svg" width="224" height="32" viewBox="0 0 224 32">
  <g id="组_2327" data-name="组 2327" transform="translate(-951 -4436)">
    <g id="组_2322" data-name="组 2322">
      <g id="矩形_1981" data-name="矩形 1981" transform="translate(1143 4436)" fill="none" stroke="#3963ef" stroke-width="1">
        <rect width="32" height="32" rx="4" stroke="none"/>
        <rect x="0.5" y="0.5" width="31" height="31" rx="3.5" fill="none"/>
      </g>
      <path id="路径_3572" data-name="路径 3572" d="M1770.064,592.815a1.224,1.224,0,0,0-1.216,1.234v4.828a1.216,1.216,0,1,0,2.432,0v-4.828a1.225,1.225,0,0,0-1.216-1.234Zm-14.668,0a1.225,1.225,0,0,0-1.216,1.234v4.828a1.216,1.216,0,1,0,2.431,0v-4.828a1.224,1.224,0,0,0-1.216-1.234Zm1.949,8.854a.948.948,0,0,0,.949.948h1.082V605.3a1.216,1.216,0,1,0,2.432,0v-2.686h1.893V605.3a1.216,1.216,0,1,0,2.432,0v-2.686h1.084a.949.949,0,0,0,.949-.948V592.85h-10.82Zm7.95-13.386,1-1.452a.171.171,0,1,0-.281-.194l-1.038,1.508a6.2,6.2,0,0,0-4.491,0l-1.037-1.508a.171.171,0,1,0-.281.194l1,1.452a4.715,4.715,0,0,0-2.846,3.783h10.82a4.714,4.714,0,0,0-2.845-3.783Zm-4.846,2.287a.6.6,0,1,1,.6-.6.6.6,0,0,1-.6.6Zm4.639,0a.6.6,0,1,1,.6-.6.6.6,0,0,1-.6.6Zm0,0" transform="translate(-604.18 3855.449)" fill="#3963ef"/>
    </g>
    <g id="组_2323" data-name="组 2323">
      <g id="矩形_1980" data-name="矩形 1980" transform="translate(1095 4436)" fill="none" stroke="#3963ef" stroke-width="1">
        <rect width="32" height="32" rx="4" stroke="none"/>
        <rect x="0.5" y="0.5" width="31" height="31" rx="3.5" fill="none"/>
      </g>
      <path id="联合_66" data-name="联合 66" d="M-3457.724-1418.109a1.278,1.278,0,0,1-.465-1.745l.911-1.579a2.183,2.183,0,0,1,2.524.729l-1.23,2.129a1.266,1.266,0,0,1-1.1.638A1.262,1.262,0,0,1-3457.724-1418.109Zm14.039-.466q-3.146-5.458-4.716-8.192a3.547,3.547,0,0,1,.452-4.335q1.252,2.178,3.754,6.522h3.314a1.281,1.281,0,0,1,1.274,1.279,1.276,1.276,0,0,1-1.274,1.279h-1.848l1.248,2.168a1.283,1.283,0,0,1-.465,1.745,1.27,1.27,0,0,1-.635.17A1.273,1.273,0,0,1-3443.685-1418.576Zm-15.04-3.447A1.28,1.28,0,0,1-3460-1423.3a1.281,1.281,0,0,1,1.274-1.279h3.25l4.168-7.239-1.307-2.263a1.285,1.285,0,0,1,.465-1.746,1.274,1.274,0,0,1,1.74.467l.567.985.567-.985a1.271,1.271,0,0,1,1.741-.467,1.281,1.281,0,0,1,.465,1.746l-5.469,9.5h3.957a1.754,1.754,0,0,1,1.447,2.558Z" transform="translate(4561 5879)" fill="#3963ef" stroke="rgba(0,0,0,0)" stroke-width="1"/>
    </g>
    <g id="组_2326" data-name="组 2326">
      <path id="路径_3573" data-name="路径 3573" d="M1807.414,654.684a3.572,3.572,0,0,1,1.05-2.814,4.12,4.12,0,0,1,2.8-1.349,3.961,3.961,0,0,1-1.05,2.925,3.609,3.609,0,0,1-2.8,1.238Zm5.368,5.4a3.859,3.859,0,0,0,2.681,3.6,10.615,10.615,0,0,1-1.4,2.586c-.816,1.124-1.632,2.137-3.031,2.248-1.284,0-1.75-.674-3.268-.674-1.515-.111-1.981.674-3.15.674-1.282,0-2.216-1.238-3.031-2.248-1.634-2.25-2.918-6.3-1.284-9.11a4.74,4.74,0,0,1,4.083-2.25c1.282,0,2.45.786,3.266.786s2.215-1.01,3.734-.786a4.724,4.724,0,0,1,3.615,1.8,3.721,3.721,0,0,0-2.216,3.375Zm0,0" transform="translate(-840.543 3791.479)" fill="#3963ef"/>
      <g id="矩形_1977" data-name="矩形 1977" transform="translate(951 4436)" fill="none" stroke="#3963ef" stroke-width="1">
        <rect width="32" height="32" rx="4" stroke="none"/>
        <rect x="0.5" y="0.5" width="31" height="31" rx="3.5" fill="none"/>
      </g>
    </g>
    <g id="组_2325" data-name="组 2325">
      <path id="路径_4078" data-name="路径 4078" d="M1552.606,1290.624v-6.232l-6.807,1.071v5.161Zm.85.852v6.366l7.658,1.207v-7.572Zm0-.852h7.658v-7.572l-7.658,1.2Zm-.85.852H1545.8v5.161l6.807,1.071Zm0,0" transform="translate(-538.799 3160.948)" fill="#3963ef"/>
      <g id="矩形_1978" data-name="矩形 1978" transform="translate(999 4436)" fill="none" stroke="#3963ef" stroke-width="1">
        <rect width="32" height="32" rx="4" stroke="none"/>
        <rect x="0.5" y="0.5" width="31" height="31" rx="3.5" fill="none"/>
      </g>
    </g>
    <g id="组_2324" data-name="组 2324">
      <g id="组_2077" data-name="组 2077" transform="translate(1050.604 4331.194)">
        <g id="组_2076" data-name="组 2076" transform="translate(5.396 111.806)">
          <path id="路径_3921" data-name="路径 3921" d="M15.023,120.822l-8.834-9.016H6.167a1.41,1.41,0,0,0-.771,1.272v15.515a1.4,1.4,0,0,0,.758,1.272l.022-.023,8.848-8.985s.013-.026,0-.036Zm.722-.709,2.092-2.1v-.048l-9.677-5.687a.027.027,0,0,0-.009.02.026.026,0,0,0,.009.02L15.72,120.1a.045.045,0,0,0,.026.013Zm5.084-.373-2.03-1.2h-.027l-2.256,2.274a.034.034,0,0,0,0,.048l2.256,2.27H18.8a.039.039,0,0,1,0-.026l2.079-1.2a1.33,1.33,0,0,0,.444-1.094,1.354,1.354,0,0,0-.492-1.069Zm-5.062,1.849a.048.048,0,0,0-.026,0l-7.615,7.792v.036h0l9.712-5.643v-.022h0Zm0,0" transform="translate(-5.396 -111.806)" fill="#3963ef"/>
        </g>
      </g>
      <g id="矩形_1979" data-name="矩形 1979" transform="translate(1047 4436)" fill="none" stroke="#3963ef" stroke-width="1">
        <rect width="32" height="32" rx="4" stroke="none"/>
        <rect x="0.5" y="0.5" width="31" height="31" rx="3.5" fill="none"/>
      </g>
    </g>
  </g>
</svg>
