<svg width="120" height="60" viewBox="0 0 120 60" fill="none" xmlns="http://www.w3.org/2000/svg">
<path d="M54.8245 9.97988L53.7199 13.8954H51.9323L52.5093 13.5255L54.0059 12.4998C53.4733 11.299 53.0246 10.4681 52.6128 10.0341C52.6005 9.96015 51.8435 10.4237 50.3789 11.3755L49.8808 11.6911C49.9367 11.7829 49.9984 11.8711 50.0658 11.9549C50.5589 12.6256 51.015 13.2543 51.3528 13.8732H49.8808L49.4074 16.08H52.7188L52.2454 16.9676H48.6702L48.2264 19.1744H50.697C49.66 20.4448 48.3832 21.4988 46.9393 22.2763L49.2521 11.2398H42.8413L40.4496 22.6436L40.24 23.5116C39.6852 25.7183 38.8592 27.6958 37.7447 29.4489C38.3861 30.0127 38.9514 30.6575 39.4263 31.3672C40.7652 29.4588 41.818 27.0153 42.6317 24.0096H44.0248L43.2358 27.7402C43.1742 28.2506 42.6539 28.4799 41.712 28.3961C41.9093 29.3084 41.9931 30.2207 41.9216 31.1823C44.1974 31.1675 45.3736 30.6547 45.3908 29.6043L46.6779 23.5091L46.7568 23.0899L47.1513 23.5091C47.4571 23.8716 47.6938 24.2488 47.8614 24.5866C48.3064 24.3585 48.7214 24.0761 49.0967 23.7458L48.2584 26.4778H55.902L55.7714 27.1879C55.4681 28.6624 55.044 29.407 54.5089 29.2911L54.9281 27.1879H46.7297L46.2563 29.3676H52.9309C53.3131 30.1911 53.4733 31.0344 53.4043 31.9171C55.5346 31.848 56.839 31.5226 57.3445 30.9185C57.5023 30.7459 57.6699 30.4377 57.8425 29.9199C58.1877 28.8794 58.597 27.3556 59.105 25.3485L59.3934 24.1896H56.5579L56.7157 23.5066L56.9253 22.4562C57.3514 22.8324 57.7993 23.1831 58.2666 23.5066C58.5072 23.6771 58.7621 23.8264 59.0285 23.9529L59.3984 23.5091C60.1307 22.6214 60.8235 21.8817 61.4745 21.2752C59.7608 20.787 58.5058 20.0867 57.7168 19.172H61.4745L61.9183 16.9652H55.1623C55.358 16.6893 55.5171 16.3893 55.6357 16.0726H61.2082L61.652 13.8658H59.6795L62.0169 11.7626L59.6795 10.3177C58.9188 11.2915 58.1038 12.2217 57.2384 13.1039L58.6562 13.9718H56.6343L56.9228 13.0521L57.2927 12.1324L58.0275 10.399C58.0447 10.2462 57.9436 10.1697 57.6329 10.1352C57.0412 10.044 56.1166 9.98234 54.8467 9.95029L54.8245 9.97988ZM68.9603 10.1648C68.2206 10.4015 67.1406 10.8305 65.5971 11.479C66.0701 12.831 66.4305 14.2198 66.6746 15.6312L70.1956 14.3688L68.9628 10.1648H68.9603ZM71.5616 11.3483L71.0093 13.8978H73.1125L72.1139 18.6566H69.4855L68.9332 21.2061H71.5863L71.0882 23.5436L69.4855 31.1379H72.4295L74.0076 23.5436L74.5056 21.2061H76.6064L76.1872 23.1244L76.1083 23.5436C75.5708 26.3619 75.847 28.5662 76.922 30.1393C77.5779 31.0714 78.3694 31.4659 79.3137 31.3229C80.2901 31.3722 81.269 29.7941 82.2306 26.5937L79.8389 25.5433C79.363 27.0104 79.0647 27.4862 78.9463 26.9611C78.7589 26.214 78.7984 25.0748 79.0524 23.5461L79.368 21.9434L81.6019 11.3533L71.5616 11.3483ZM44.8385 13.5305H46.2316L45.5757 16.657H44.2097L44.8385 13.5305ZM76.0294 13.9003H78.2362L77.2376 18.6591H75.0308L76.0294 13.9003ZM62.7344 16.8591L62.1821 19.4333H64.7834L63.9155 23.5313L63.3632 26.2633C63.2399 26.8353 62.7862 27.432 61.9972 28.0755C61.7654 28.2679 61.6224 28.3887 61.6027 28.4454C61.9247 29.4088 62.4436 30.2947 63.1265 31.0467C63.1832 31.0615 63.4889 30.7903 64.0191 30.2577C64.8081 29.4193 66.8152 27.5454 70.06 24.7148C70.0501 24.6778 69.8701 24.2956 69.5348 23.5855L69.5102 23.5362L69.0367 22.4858L67.8039 23.5362L66.5168 24.6137L66.7535 23.5362L68.1466 16.8616H62.7344V16.8591ZM43.7363 18.8317H45.1023L44.4982 21.7486H43.1322L43.7363 18.8317ZM53.8013 19.2015H54.6149C54.7284 19.5221 54.8788 19.8328 55.0588 20.1212H53.0862L53.4561 19.6478L53.8013 19.2015ZM50.9657 22.1973H54.25L53.9862 23.5362L53.8013 24.2759H51.5427L51.7794 23.5362L52.0161 22.8532C51.9052 22.7891 51.8386 22.7472 51.7794 22.7472H50.4356L50.9657 22.1973ZM18.2214 37.1887L17.7283 39.2155H22.5438L19.4765 51.4946H22.6325L23.932 46.2797L25.6998 39.213H30.4636L30.9666 37.1863H18.219L18.2214 37.1887ZM96.7239 38.4216L96.0656 41.0894H93.5358L93.0501 43.062H102.296L96.7239 38.4216ZM34.5886 40.5001C32.6654 40.5001 30.9986 41.0031 29.5833 41.9795C28.1729 42.9979 27.2582 44.3343 26.871 45.9814L26.802 46.2575C26.4864 47.7862 26.765 49.0339 27.6502 49.956C28.5921 50.9546 30.0493 51.4453 32.0145 51.4453C35.3678 51.4453 37.937 49.3988 38.1984 49.1769L36.719 48.8489C36.3738 48.9279 34.5122 49.4654 32.6506 49.3002C30.2984 49.0881 29.7658 47.3671 29.8964 46.5139H39.34L39.4263 46.2378L39.4954 45.9419C39.9244 44.2258 39.6975 42.8746 38.8198 41.9056C37.942 40.9366 36.5341 40.4262 34.5936 40.4262L34.5886 40.5001ZM62.5643 40.5001C60.6116 40.4783 58.6957 41.0323 57.056 42.093C55.399 43.1606 54.3782 44.4847 53.9911 46.043L53.9221 46.2846C53.6311 47.7271 54.0158 48.9476 55.0662 49.9388C56.1757 50.9793 57.7784 51.4971 59.7954 51.4971C61.0331 51.4971 62.3301 51.2407 63.6911 50.7574L64.4876 47.5865C63.5802 48.2843 62.8207 48.7454 62.2191 48.992C61.5978 49.2385 60.9246 49.3741 60.1923 49.3741C59.0458 49.3741 58.1779 49.0659 57.5935 48.4372C57.1004 47.8701 56.8908 47.155 57.0387 46.3068C57.056 46.2131 57.0831 46.1268 57.1078 46.0307C57.3469 45.0764 57.9214 44.2726 58.8411 43.639C59.7608 43.0053 60.794 42.6872 61.9405 42.6872C62.6703 42.6872 63.2621 42.8105 63.7404 43.0694C64.2188 43.3283 64.7391 43.8091 65.2642 44.4551L66.0607 41.2497C65.0251 40.7566 63.8613 40.5223 62.5594 40.5223L62.5643 40.5001ZM73.9804 40.5001C72.0572 40.5001 70.3904 41.0031 68.9751 41.9795C67.5647 42.9979 66.65 44.3343 66.2628 45.9814L66.1938 46.2575C65.8733 47.7862 66.1568 49.0339 67.042 49.956C67.9839 50.9546 69.4411 51.4453 71.4063 51.4453C74.7596 51.4453 77.3288 49.3988 77.5902 49.1769L76.1108 48.8489C75.7656 48.9279 73.904 49.4654 72.0424 49.3002C69.6902 49.0881 69.1576 47.3671 69.2882 46.5139H78.7318L78.8181 46.2378L78.8871 45.9419C79.3162 44.2258 79.1041 42.8746 78.2288 41.9056C77.3535 40.9366 75.9259 40.4262 73.9878 40.4262L73.9804 40.5001ZM49.4173 40.796C48.0809 40.796 46.779 41.2078 45.5018 42.0437L42.6786 41.0919L41.3791 46.2896L40.0797 51.5045H43.1446L44.444 46.2896C44.7645 45.0912 45.1911 44.2381 45.7089 43.7425C46.2637 43.2149 47.0354 42.9634 48.0464 42.9634C48.9759 42.9634 49.5751 43.1532 49.8315 43.5551C50.0879 43.957 50.0879 44.6597 49.8315 45.6855L49.6934 46.292L48.3768 51.507H51.4416L52.741 46.292L53.0369 45.1134C53.4068 43.6463 53.3032 42.5935 52.7262 41.9426C52.0605 41.2029 50.9509 40.7985 49.4173 40.7985V40.796ZM88.5477 40.796C87.2113 40.796 85.9094 41.2078 84.6322 42.0437L81.809 41.0919L80.5096 46.2896L79.2102 51.5045H82.275L83.5744 46.2896C83.895 45.0912 84.3191 44.2381 84.8393 43.7425C85.3966 43.2149 86.1659 42.9634 87.1768 42.9634C88.1064 42.9634 88.7055 43.1532 88.962 43.5551C89.2184 43.957 89.2184 44.6597 88.962 45.6855L88.8066 46.292L87.5072 51.507H90.572L91.8715 46.292L92.1673 45.1134C92.5372 43.6463 92.4336 42.5935 91.8567 41.9426C91.1909 41.2029 90.0814 40.7985 88.5477 40.7985V40.796ZM34.1054 42.6699C35.7327 42.6699 36.6006 43.311 36.7042 44.5932H30.5893C30.757 44.2985 30.9672 44.0302 31.2131 43.7968C31.4621 43.5587 31.7415 43.3548 32.0441 43.1902C32.3548 43.0204 32.6863 42.8919 33.0303 42.808C33.3811 42.7151 33.7425 42.6687 34.1054 42.6699ZM73.4947 42.6699C75.122 42.6699 75.99 43.311 76.0935 44.5932H69.9786C70.1475 44.2993 70.3576 44.0311 70.6025 43.7968C70.8518 43.5592 71.1311 43.3553 71.4334 43.1902C71.7443 43.0209 72.0758 42.8925 72.4197 42.808C72.7704 42.7151 73.1318 42.6687 73.4947 42.6699ZM95.459 43.5181L94.7686 46.2896L93.452 51.5045H96.4995L97.8162 46.2896L98.5066 43.5181H95.459Z" fill="#006CB6"/>
</svg>
