<svg width="150" height="36" viewBox="0 0 150 36" fill="none" xmlns="http://www.w3.org/2000/svg">
<path d="M149.861 26.0331L146.09 19.5306C148.184 18.6355 149.655 16.5557 149.655 14.1379C149.655 10.9051 147.026 8.27582 143.793 8.27582H135.517C134.946 8.27582 134.483 8.73918 134.483 9.3103V26.5517C134.483 27.1228 134.946 27.5862 135.517 27.5862H136.207C136.778 27.5862 137.241 27.1228 137.241 26.5517V20H143.268L147.369 27.0703C147.554 27.3881 147.897 27.5862 148.265 27.5862H148.966C149.536 27.5862 150 27.1221 150 26.5517C150 26.3685 149.951 26.1894 149.861 26.0331ZM137.241 11.0344H143.793C145.504 11.0344 146.897 12.4265 146.897 14.1379C146.897 15.8493 145.504 17.2413 143.793 17.2413H137.241V11.0344Z" fill="#142149"/>
<path d="M128.621 8.27582H114.138C113.567 8.27582 113.103 8.73918 113.103 9.3103V9.99996C113.103 10.5711 113.567 11.0344 114.138 11.0344H120V26.5517C120 27.1228 120.463 27.5862 121.034 27.5862H121.724C122.295 27.5862 122.759 27.1228 122.759 26.5517V11.0344H128.621C129.192 11.0344 129.655 10.5711 129.655 9.99996V9.3103C129.655 8.73918 129.192 8.27582 128.621 8.27582Z" fill="#142149"/>
<path d="M113.448 24.8275H104.138V9.3103C104.138 8.73918 103.675 8.27582 103.103 8.27582H102.414C101.843 8.27582 101.379 8.73918 101.379 9.3103V26.5517C101.379 27.1228 101.843 27.5862 102.414 27.5862H113.448C114.019 27.5862 114.483 27.1228 114.483 26.5517V25.862C114.483 25.2909 114.019 24.8275 113.448 24.8275Z" fill="#142149"/>
<path d="M95.8621 9.3103C95.8621 8.73918 95.3987 8.27582 94.8276 8.27582H94.1379C93.5668 8.27582 93.1034 8.73918 93.1034 9.3103V20C93.1034 22.8569 90.788 25.1724 87.931 25.1724C85.0741 25.1724 82.7586 22.8569 82.7586 20V9.3103C82.7586 8.73918 82.2953 8.27582 81.7241 8.27582H81.0345C80.4634 8.27582 80 8.73918 80 9.3103V20C80 24.3803 83.5507 27.931 87.931 27.931C92.3114 27.931 95.8621 24.3803 95.8621 20V9.3103Z" fill="#142149"/>
<path d="M74.8276 8.27585H74.1757C73.75 8.27585 73.3728 8.53111 73.2139 8.92645L67.2414 23.8584L61.2682 8.92645C61.1099 8.53111 60.7328 8.27585 60.3072 8.27585H59.6552C59.0847 8.27585 58.6207 8.7399 58.6207 9.31033C58.6207 9.44369 58.6456 9.573 58.6941 9.69421L65.5907 26.9356C65.7489 27.3309 66.126 27.5862 66.5517 27.5862H67.931C68.3566 27.5862 68.7338 27.3309 68.8921 26.9356L75.7886 9.69421C75.8372 9.573 75.8621 9.44369 75.8621 9.31033C75.8621 8.7399 75.398 8.27585 74.8276 8.27585Z" fill="#142149"/>
<mask id="mask0_121_290" style="mask-type:alpha" maskUnits="userSpaceOnUse" x="0" y="0" width="42" height="36">
<path d="M14.4174 0.965776C14.051 0.385258 13.4037 0 12.6663 0H2.06897C0.926034 0 0 0.926035 0 2.06897C0 2.47509 0.116465 2.85293 0.318534 3.17284L20.3184 34.897C20.6848 35.4768 21.3322 35.8621 22.069 35.8621C22.8058 35.8621 23.4529 35.4768 23.8193 34.897L29.1184 26.4918C29.3204 26.1719 29.4369 25.7941 29.4369 25.3879C29.4369 24.9825 29.3204 24.604 29.1184 24.2847L14.4174 0.965776Z" fill="white"/>
<path d="M41.0608 5.34147L38.3022 0.965775C37.9358 0.385258 37.2884 0 36.5516 0H25.9544C24.8115 0 23.8854 0.926034 23.8854 2.06897C23.8854 2.47509 24.0012 2.85293 24.2033 3.17284L32.2609 15.9537C32.6273 16.5335 33.2746 16.9188 34.0114 16.9188C34.7488 16.9188 35.3953 16.5335 35.7616 15.9537L37.5861 13.0597L41.0608 7.54853C41.2628 7.22862 41.3792 6.85078 41.3792 6.44465C41.3792 6.03922 41.2628 5.66069 41.0608 5.34147Z" fill="white"/>
</mask>
<g mask="url(#mask0_121_290)">
<g opacity="0.25">
<path d="M29.4349 11.4711C30.9774 13.9178 32.261 15.9536 32.261 15.9536C32.6273 16.5335 33.2746 16.9188 34.0114 16.9188C34.7488 16.9188 35.3953 16.5335 35.7617 15.9536L37.5861 13.0597L41.0608 7.54845C41.2629 7.22853 41.3792 6.85078 41.3792 6.44465C41.3792 6.03922 41.2629 5.66069 41.0608 5.34147L38.3022 0.965775C37.9358 0.385258 37.2885 0 36.5517 0H25.9544C24.8115 0 23.8854 0.926034 23.8854 2.06897C23.8854 2.47509 24.0012 2.85293 24.2033 3.17284C24.2033 3.17284 27.1126 7.7875 29.4349 11.4711Z" stroke="#0066FF" stroke-width="8" stroke-miterlimit="10"/>
</g>
<g opacity="0.5">
<path d="M29.4349 11.4711C30.9774 13.9178 32.261 15.9536 32.261 15.9536C32.6273 16.5335 33.2746 16.9188 34.0114 16.9188C34.7488 16.9188 35.3953 16.5335 35.7617 15.9536L37.5861 13.0597L41.0608 7.54845C41.2629 7.22853 41.3792 6.85078 41.3792 6.44465C41.3792 6.03922 41.2629 5.66069 41.0608 5.34147L38.3022 0.965775C37.9358 0.385258 37.2885 0 36.5517 0H25.9544C24.8115 0 23.8854 0.926034 23.8854 2.06897C23.8854 2.47509 24.0012 2.85293 24.2033 3.17284C24.2033 3.17284 27.1126 7.7875 29.4349 11.4711Z" stroke="#0066FF" stroke-width="8" stroke-miterlimit="10"/>
</g>
<path d="M29.4349 11.4711C30.9774 13.9178 32.261 15.9536 32.261 15.9536C32.6273 16.5335 33.2746 16.9188 34.0114 16.9188C34.7488 16.9188 35.3953 16.5335 35.7617 15.9536L37.5861 13.0597L41.0608 7.54845C41.2629 7.22853 41.3792 6.85078 41.3792 6.44465C41.3792 6.03922 41.2629 5.66069 41.0608 5.34147L38.3022 0.965775C37.9358 0.385258 37.2885 0 36.5517 0H25.9544C24.8115 0 23.8854 0.926034 23.8854 2.06897C23.8854 2.47509 24.0012 2.85293 24.2033 3.17284C24.2033 3.17284 27.1126 7.7875 29.4349 11.4711Z" stroke="#0066FF" stroke-width="8" stroke-miterlimit="10"/>
<g opacity="0.25">
<path d="M17.4926 30.4144C19.2002 33.1232 20.3185 34.897 20.3185 34.897C20.6849 35.4768 21.3322 35.8621 22.069 35.8621C22.8059 35.8621 23.453 35.4768 23.8194 34.897L29.1184 26.4918C29.3205 26.1719 29.437 25.7941 29.437 25.3879C29.437 24.9825 29.3205 24.604 29.1184 24.2847L14.4175 0.965776C14.0511 0.385258 13.4038 0 12.6664 0H2.06904C0.92611 0 7.62939e-05 0.926035 7.62939e-05 2.06897C7.62939e-05 2.47509 0.116542 2.85293 0.31861 3.17284C0.31861 3.17284 11.9784 21.6678 17.4926 30.4144Z" stroke="#0066FF" stroke-width="8" stroke-miterlimit="10"/>
</g>
<g opacity="0.5">
<path d="M17.4926 30.4144C19.2002 33.1232 20.3185 34.897 20.3185 34.897C20.6849 35.4768 21.3322 35.8621 22.069 35.8621C22.8059 35.8621 23.453 35.4768 23.8194 34.897L29.1184 26.4918C29.3205 26.1719 29.437 25.7941 29.437 25.3879C29.437 24.9825 29.3205 24.604 29.1184 24.2847L14.4175 0.965776C14.0511 0.385258 13.4038 0 12.6664 0H2.06904C0.92611 0 7.62939e-05 0.926035 7.62939e-05 2.06897C7.62939e-05 2.47509 0.116542 2.85293 0.31861 3.17284C0.31861 3.17284 11.9784 21.6678 17.4926 30.4144Z" stroke="#0066FF" stroke-width="8" stroke-miterlimit="10"/>
</g>
<path d="M17.4926 30.4144C19.2002 33.1232 20.3185 34.897 20.3185 34.897C20.6849 35.4768 21.3322 35.8621 22.069 35.8621C22.8059 35.8621 23.453 35.4768 23.8194 34.897L29.1184 26.4918C29.3205 26.1719 29.437 25.7941 29.437 25.3879C29.437 24.9825 29.3205 24.604 29.1184 24.2847L14.4175 0.965776C14.0511 0.385258 13.4038 0 12.6664 0H2.06904C0.92611 0 7.62939e-05 0.926035 7.62939e-05 2.06897C7.62939e-05 2.47509 0.116542 2.85293 0.31861 3.17284C0.31861 3.17284 11.9784 21.6678 17.4926 30.4144Z" stroke="#0066FF" stroke-width="8" stroke-miterlimit="10"/>
<path d="M43.0359 70.9315C43.4023 71.5114 44.0496 71.8966 44.7864 71.8966C45.5232 71.8966 46.1704 71.5114 46.5368 70.9315L51.8358 62.5263C52.0378 62.2064 52.1544 61.8285 52.1544 61.4224C52.1544 61.017 52.0378 60.6385 51.8358 60.3192L14.4167 0.965776C14.0503 0.385258 13.4038 0 12.667 0H2.06897C0.926035 0 0 0.926035 0 2.06897C0 2.47509 0.116467 2.85293 0.318535 3.17284L43.0359 70.9315Z" fill="#C9F4FF"/>
<path d="M43.0359 70.9315C43.4023 71.5114 44.0496 71.8966 44.7864 71.8966C45.5232 71.8966 46.1704 71.5114 46.5368 70.9315L51.8358 62.5263C52.0378 62.2064 52.1544 61.8285 52.1544 61.4224C52.1544 61.017 52.0378 60.6384 51.8358 60.3192L14.4167 0.965776C14.0503 0.385258 13.4038 0 12.667 0H2.06897C0.926035 0 0 0.926035 0 2.06897C0 2.47509 0.116467 2.85293 0.318535 3.17284L43.0359 70.9315Z" stroke="#C9F4FF" stroke-width="2" stroke-miterlimit="10"/>
<path d="M43.036 70.9315C43.4024 71.5114 44.0497 71.8966 44.7865 71.8966C45.5233 71.8966 46.1705 71.5114 46.5369 70.9315L51.8359 62.5263C52.0379 62.2064 52.1545 61.8285 52.1545 61.4224C52.1545 61.017 52.0379 60.6385 51.8359 60.3192L16.5909 4.41405C16.2245 3.83353 15.5779 3.44827 14.8411 3.44827H4.24301C3.10008 3.44827 2.17405 4.37431 2.17405 5.51724C2.17405 5.92336 2.29061 6.3012 2.49267 6.62112L43.036 70.9315Z" fill="#51B8FF"/>
<path d="M43.036 70.9315C43.4024 71.5114 44.0497 71.8966 44.7865 71.8966C45.5233 71.8966 46.1705 71.5114 46.5369 70.9315L51.8359 62.5263C52.0379 62.2064 52.1545 61.8285 52.1545 61.4224C52.1545 61.017 52.0379 60.6385 51.8359 60.3192L16.5909 4.41405C16.2245 3.83353 15.5779 3.44827 14.8411 3.44827H4.24301C3.10008 3.44827 2.17405 4.37431 2.17405 5.51724C2.17405 5.92336 2.29061 6.3012 2.49267 6.62112L43.036 70.9315Z" stroke="#51B8FF" stroke-width="2" stroke-miterlimit="10"/>
<path d="M43.0359 70.9315C43.4023 71.5114 44.0496 71.8965 44.7864 71.8965C45.5232 71.8965 46.1704 71.5114 46.5368 70.9315L51.8358 62.5263C52.0378 62.2064 52.1544 61.8285 52.1544 61.4224C52.1544 61.017 52.0378 60.6384 51.8358 60.3192L19.6342 9.24162C19.2678 8.66111 18.6213 8.27585 17.8845 8.27585H7.28646C6.14353 8.27585 5.2175 9.20188 5.2175 10.3448C5.2175 10.7509 5.33396 11.1288 5.53603 11.4487L43.0359 70.9315Z" fill="#0066FF"/>
<path d="M43.0359 70.9315C43.4023 71.5114 44.0496 71.8965 44.7864 71.8965C45.5232 71.8965 46.1704 71.5114 46.5368 70.9315L51.8358 62.5263C52.0378 62.2064 52.1544 61.8285 52.1544 61.4224C52.1544 61.017 52.0378 60.6384 51.8358 60.3192L19.6342 9.24162C19.2678 8.66111 18.6213 8.27585 17.8845 8.27585H7.28646C6.14353 8.27585 5.2175 9.20188 5.2175 10.3448C5.2175 10.7509 5.33396 11.1288 5.53603 11.4487L43.0359 70.9315Z" stroke="#0066FF" stroke-width="2" stroke-miterlimit="10"/>
<path d="M43.0219 33.0227C43.3883 33.6026 44.0355 33.9878 44.7723 33.9878C45.5098 33.9878 46.1564 33.6026 46.5228 33.0227L51.8217 24.6175C52.0238 24.2976 52.1403 23.9197 52.1403 23.5136C52.1403 23.1082 52.0238 22.7297 51.8217 22.4104L38.3021 0.965866C37.9357 0.385348 37.2885 0 36.5517 0H25.9543C24.8114 0 23.8853 0.926035 23.8853 2.06897C23.8853 2.47509 24.0011 2.85293 24.2032 3.17285L43.0219 33.0227Z" fill="#0066FF"/>
<path d="M43.0219 33.0227C43.3883 33.6026 44.0355 33.9878 44.7723 33.9878C45.5098 33.9878 46.1564 33.6026 46.5228 33.0227L51.8217 24.6175C52.0238 24.2976 52.1403 23.9197 52.1403 23.5136C52.1403 23.1082 52.0238 22.7297 51.8217 22.4104L38.3021 0.965866C37.9357 0.385348 37.2885 0 36.5517 0H25.9543C24.8114 0 23.8853 0.926035 23.8853 2.06897C23.8853 2.47509 24.0011 2.85293 24.2032 3.17285L43.0219 33.0227Z" stroke="#0066FF" stroke-width="2" stroke-miterlimit="10"/>
</g>
</svg>
