<?xml version="1.0" standalone="no"?><!DOCTYPE svg PUBLIC "-//W3C//DTD SVG 1.1//EN" "http://www.w3.org/Graphics/SVG/1.1/DTD/svg11.dtd"><svg t="1669111659953" class="icon" viewBox="0 0 1024 1024" version="1.1" xmlns="http://www.w3.org/2000/svg" p-id="10582" xmlns:xlink="http://www.w3.org/1999/xlink" width="200" height="200"><path d="M0.234057 508.679314C0.234057 789.562514 227.913143 1017.270857 508.781714 1017.270857c280.868571 0 508.576914-227.693714 508.576915-508.576914 0-280.868571-227.693714-508.562286-508.576915-508.562286C227.927771 0.117029 0.234057 227.810743 0.234057 508.679314z" fill="#EBF2FF" p-id="10583"></path><path d="M772.666514 264.850286a16.749714 16.749714 0 0 0-14.6432-14.6432c-128.4096-30.4128-261.3248 19.1488-339.061028 126.1568a20.655543 20.655543 0 0 1-11.264 7.899428c-45.056 11.264-86.7328 34.903771-119.3984 68.695772-15.7696 15.7696-29.2864 32.6656-40.5504 51.8144-9.0112 15.784229 6.7584 34.933029 24.7808 28.174628 28.16-10.1376 58.5728-15.784229 87.8592-15.784228 0 2.2528-1.1264 5.646629-1.1264 7.899428a1368.327314 1368.327314 0 0 0 67.584 73.216c23.6544 23.6544 47.3088 46.1824 72.104228 67.584 2.2528 0 5.632-1.1264 7.8848-1.1264 0 30.4128-4.5056 59.684571-15.7696 87.8592a19.265829 19.265829 0 0 0 5.632 22.528c6.7584 5.632 15.7696 6.7584 22.528 2.2528 19.1488-11.264 36.0448-24.7808 51.8144-40.5504 32.6656-32.6656 56.32-74.3424 68.7104-120.539428 1.1264-4.490971 3.364571-8.996571 7.8848-11.264 105.8816-77.706971 154.331429-211.7632 125.0304-340.1728z m-134.0416 214.016a66.077257 66.077257 0 0 1-72.0896 14.6432c-24.7808-10.1376-40.5504-34.9184-40.5504-61.952 0-27.0336 15.7696-51.8144 40.5504-61.952a66.077257 66.077257 0 0 1 72.0896 14.6432c25.892571 25.9072 25.892571 68.7104 0 94.6176z" fill="#377FFC" p-id="10584"></path><path d="M311.954286 596.026514c-20.2752 20.2752-90.112 157.696-65.3312 182.4768 24.7808 24.7808 134.0416-74.3424 154.331428-94.6176 20.260571-20.2752 16.881371-56.32-7.899428-81.1008-24.7808-24.7808-60.8256-27.0336-81.1008-6.7584z" fill="#ABC6F6" p-id="10585"></path></svg>